<?xml version="1.0" standalone="no"?>
  <!DOCTYPE svg PUBLIC "-//W3C//DTD SVG 1.1//EN" "http://www.w3.org/Graphics/SVG/1.1/DTD/svg11.dtd" >
  <svg>
  <metadata>
  Created by font-carrier
  </metadata>
  <defs>
  <font id="Jura-Regular" horiz-adv-x="944" vert-adv-y="944" >
    <font-face
      
      font-family="Jura"
      
      font-weight="400"
      
      font-stretch="normal"
      
      units-per-em="1024"
      
      ascent="838"
      
      descent="-205"
      
    />
      <missing-glyph />

      

      
      <glyph glyph-name="uni21" unicode="&#x21;" d="M122-12Q106-12 88.50 0Q71 12 71 29Q71 46 88.50 58Q106 70 122 70Q139 70 156.50 58Q174 46 174 29Q174 12 157 0Q140-12 122-12M96 616Q96 649 122 649Q148 649 148 616L148 197Q148 164 121 164Q96 164 96 197L96 616Z"  horiz-adv-x="244" vert-adv-y="1024"  />

      
      <glyph glyph-name="uni22" unicode="&#x22;" d="M197 433Q172 433 172 466L172 615Q172 648 198 648Q224 648 224 615L224 466Q224 433 197 433M96 433Q71 433 71 466L71 615Q71 648 97 648Q122 648 122 615L122 466Q122 433 96 433Z"  horiz-adv-x="295" vert-adv-y="1024"  />

      
      <glyph glyph-name="uni23" unicode="&#x23;" d="M343 605Q343 600 340 588L283 436L407 436L469 606Q478 630 496 630Q508 630 515 622Q522 614 522 604Q522 597 519 588L463 436L526 436Q559 436 559 410Q559 384 526 384L444 384L396 252L495 252Q528 252 528 225Q528 200 495 200L377 200L315 30Q307 6 288 6Q262 6 262 32Q262 39 265 48L322 200L197 200L136 30Q128 6 109 6Q84 6 84 31Q84 36 87 48L143 200L77 200Q44 200 44 226Q44 252 77 252L162 252L210 384L107 384Q75 384 75 411Q75 436 107 436L229 436L291 606Q301 630 317 630Q343 630 343 605M265 384L217 252L340 252L388 384L265 384Z"  horiz-adv-x="603" vert-adv-y="1024"  />

      
      <glyph glyph-name="uni24" unicode="&#x24;" d="M161 89Q129 89 108 98Q87 107 77 124.50Q67 142 64 159Q61 176 61 200Q61 234 87 234Q113 234 113 202Q113 167 125 154Q137 141 168 141L272 141L272 301L190 301Q61 301 61 432Q61 491 90.50 522Q120 553 190 553L272 553L272 610Q272 643 298 643Q324 643 324 611L324 554L425 554Q457 554 478 545Q499 536 509 518.50Q519 501 522 484Q525 467 525 443Q525 409 499 409Q473 409 473 441Q473 476 461 488.50Q449 501 418 501L324 501L324 353L399 353Q469 353 498 314Q527 275 527 216Q527 90 399 90L324 90L324 25Q324-7 297-7Q272-7 272 24L272 89L161 89M416 301L324 301L324 141L416 141Q475 141 475 214Q475 252 458.50 276.50Q442 301 416 301M172 353L272 353L272 501L172 501Q113 501 113 434Q113 395 129.50 374Q146 353 172 353Z"  horiz-adv-x="587" vert-adv-y="1024"  />

      
      <glyph glyph-name="uni25" unicode="&#x25;" d="M367 183Q367 171 376 162Q385 153 397 153Q410 153 418.50 162Q427 171 427 183Q427 196 418 204.50Q409 213 397 213Q385 213 376 204.50Q367 196 367 183M337 125Q337 125 324.50 137Q312 149 312 183Q312 217 337 241Q362 265 397 265Q431 265 455 241Q479 217 479 183Q479 149 455 125Q431 101 397 101Q362 101 337 125M143 487Q143 487 138.50 482.50Q134 478 134 466Q134 454 143 445Q152 436 164 436Q175 436 184.50 444.50Q194 453 194 466Q194 479 184.50 487.50Q175 496 164 496Q152 496 143 487M105.50 408Q105.50 408 93.25 420Q81 432 81 466Q81 500 105.50 524Q130 548 164 548Q199 548 223.50 524Q248 500 248 466Q248 432 223.50 408Q199 384 164 384Q130 384 105.50 408M466 528Q474 528 482.50 520.50Q491 513 491 503Q491 492 479 479L119 133Q106 121 94 121Q86 121 77.50 128.50Q69 136 69 146Q69 158 81 170L442 516Q455 528 466 528Z"  horiz-adv-x="559" vert-adv-y="1024"  />

      
      <glyph glyph-name="uni26" unicode="&#x26;" d="M386 528Q386 518 378.50 510.50Q371 503 360 503Q348 503 336.50 518Q325 533 315.50 551.50Q306 570 286.50 585Q267 600 242 600Q195 600 156.50 566Q118 532 118 476Q118 440 156 397L392 125Q421 168 421 227Q421 263 448 263Q472 263 472 227Q472 147 427 84L473 32Q480 24 480 11Q480-1 473-6.50Q466-12 458-12Q443-12 428 4L393 45Q326-14 248-14Q214-14 179.50-3.50Q145 7 112.50 28.50Q80 50 59.50 90Q39 130 39 182Q39 231 59.50 279Q80 327 123 357L112 370Q64 428 64 476Q64 552 120.50 602Q177 652 243 652Q275 652 303.50 635Q332 618 349 595.50Q366 573 376 554Q386 535 386 528M359 84L157 319Q91 277 91 182Q91 107 139 72.50Q187 38 248 38Q307 38 359 84Z"  horiz-adv-x="508" vert-adv-y="1024"  />

      
      <glyph glyph-name="uni27" unicode="&#x27;" d="M96 433Q71 433 71 466L71 615Q71 648 97 648Q122 648 122 615L122 466Q122 433 96 433Z"  horiz-adv-x="194" vert-adv-y="1024"  />

      
      <glyph glyph-name="uni28" unicode="&#x28;" d="M125 503L125 133Q125 99 125.50 80Q126 61 129.50 44.50Q133 28 136.50 21.50Q140 15 151 10.50Q162 6 172 5.50Q182 5 203 5L203-47Q167-47 146.50-42Q126-37 107-19.50Q88-2 80.50 35Q73 72 73 133L73 503Q73 564 80.50 601Q88 638 107 655.50Q126 673 146.50 678Q167 683 203 683L203 631Q182 631 172 630.50Q162 630 151 625.50Q140 621 136.50 614.50Q133 608 129.50 591.50Q126 575 125.50 556Q125 537 125 503Z"  horiz-adv-x="248" vert-adv-y="1024"  />

      
      <glyph glyph-name="uni29" unicode="&#x29;" d="M123 503Q123 537 122.50 556Q122 575 118.50 591.50Q115 608 111.50 614.50Q108 621 97 625.50Q86 630 76 630.50Q66 631 45 631L45 683Q81 683 101.50 678Q122 673 141 655.50Q160 638 167.50 601Q175 564 175 503L175 133Q175 72 167.50 35Q160-2 141-19.50Q122-37 101.50-42Q81-47 45-47L45 5Q66 5 76 5.50Q86 6 97 10.50Q108 15 111.50 21.50Q115 28 118.50 44.50Q122 61 122.50 80Q123 99 123 133L123 503Z"  horiz-adv-x="248" vert-adv-y="1024"  />

      
      <glyph glyph-name="uni2a" unicode="&#x2a;" d="M307 404Q299 404 287 410L224 446L224 374Q224 341 198 341Q172 341 172 374L172 446L109 410Q97 404 89 404Q79 404 72 412Q65 420 65 429Q65 444 83 455L146 492L83 527Q65 538 65 553Q65 560 71 569Q77 578 89 578Q97 578 109 572L172 536L172 608Q172 641 199 641Q224 641 224 608L224 536L287 572Q299 578 307 578Q318 578 325 570Q332 562 332 553Q332 539 313 527L251 492L313 455Q332 443 332 429Q332 422 325.50 413Q319 404 307 404Z"  horiz-adv-x="397" vert-adv-y="1024"  />

      
      <glyph glyph-name="uni2b" unicode="&#x2b;" d="M285 20Q285-12 259-12Q233-12 233 20L233 204L69 204Q38 204 38 231Q38 257 69 257L233 257L233 440Q233 473 260 473Q285 473 285 440L285 257L447 257Q481 257 481 229Q481 218 471.50 211Q462 204 447 204L285 204L285 20Z"  horiz-adv-x="518" vert-adv-y="1024"  />

      
      <glyph glyph-name="uni2c" unicode="&#x2c;" d="M142 41Q142 31 137 22L96-61Q86-85 71-85Q49-85 49-60Q49-56 52-44L76 43Q83 66 101 66Q112 66 127 60Q142 54 142 41Z"  horiz-adv-x="210" vert-adv-y="1024"  />

      
      <glyph glyph-name="uni2d" unicode="&#x2d;" d="M73 231Q73 257 104 257L349 257Q383 257 383 229Q383 218 373.50 211Q364 204 349 204L104 204Q73 204 73 231Z"  horiz-adv-x="456" vert-adv-y="1024"  />

      
      <glyph glyph-name="uni2e" unicode="&#x2e;" d="M116 70Q132 70 149.50 58Q167 46 167 29Q167 12 149.50 0Q132-12 116-12Q99-12 82 0Q65 12 65 29Q65 46 82 58Q99 70 116 70Z"  horiz-adv-x="232" vert-adv-y="1024"  />

      
      <glyph glyph-name="uni2f" unicode="&#x2f;" d="M316 626Q316 618 313 608L95 10Q87-13 69-13Q60-13 51.50-7.50Q43-2 43 11Q43 17 46 29L264 627Q272 650 289 650Q298 650 307 644.50Q316 639 316 626Z"  horiz-adv-x="359" vert-adv-y="1024"  />

      
      <glyph glyph-name="uni30" unicode="&#x30;" d="M116 497L116 138Q116 104 149.50 75.50Q183 47 233 47L359 47Q409 47 442.50 75.50Q476 104 476 138L476 497Q476 531 442.50 559.50Q409 588 359 588L233 588Q183 588 149.50 559.50Q116 531 116 497M528 154Q528 84 477.50 39.50Q427-5 350-5L242-5Q165-5 114.50 39.50Q64 84 64 154L64 482Q64 552 114.50 596.50Q165 641 242 641L350 641Q427 641 477.50 596.50Q528 552 528 482L528 154Z"  horiz-adv-x="592" vert-adv-y="1024"  />

      
      <glyph glyph-name="uni31" unicode="&#x31;" d="M279 600L254 576Q240 562 225 562Q212 562 206.50 569Q201 576 201 584Q201 597 215 610L276 672Q291 685 304 685Q313 685 322 678Q331 671 331 657L331 25Q331-7 305-7Q279-7 279 25L279 600Z"  horiz-adv-x="592" vert-adv-y="1024"  />

      
      <glyph glyph-name="uni32" unicode="&#x32;" d="M528 460Q528 410 486.50 369.50Q445 329 385 298.50Q325 268 265 235.50Q205 203 162 155Q119 107 117 47L493 47Q528 47 528 20Q528-5 493-5L65-5L65 44Q65 115 107.50 169.50Q150 224 210 257.50Q270 291 330.50 319.50Q391 348 433.50 383Q476 418 476 460Q476 543 441 566Q406 589 312 589L171 589Q139 589 128 575.50Q117 562 117 529Q117 494 90 494Q65 494 65 529Q65 589 88 615Q111 641 164 641L312 641Q423 641 475.50 604.50Q528 568 528 460Z"  horiz-adv-x="592" vert-adv-y="1024"  />

      
      <glyph glyph-name="uni33" unicode="&#x33;" d="M338 589L254 589Q207 589 161.50 572Q116 555 116 527Q116 494 90 494Q64 494 64 529Q64 574 113.50 607.50Q163 641 247 641L327 641Q436 641 482 598.50Q528 556 528 451Q528 418 484 379Q440 340 401 326Q438 315 483 267.50Q528 220 528 185Q528 80 482 37.50Q436-5 327-5L247-5Q163-5 113.50 28.50Q64 62 64 106Q64 142 90 142Q116 142 116 109Q116 81 161.50 64Q207 47 254 47L338 47Q417 47 447 77.50Q477 108 477 166Q477 219 413 259Q349 299 291 299Q252 299 252 326Q252 352 291 352Q353 352 415 385Q477 418 477 470Q477 528 447 558.50Q417 589 338 589Z"  horiz-adv-x="592" vert-adv-y="1024"  />

      
      <glyph glyph-name="uni34" unicode="&#x34;" d="M498 170L442 170L442 24Q442-7 416-7Q389-7 389 24L389 170L62 170L62 233L376 641L442 641L442 222L498 222Q530 222 530 196Q530 170 498 170M114 222L389 222L389 579L114 222Z"  horiz-adv-x="592" vert-adv-y="1024"  />

      
      <glyph glyph-name="uni35" unicode="&#x35;" d="M93 121Q98 121 125.50 101.50Q153 82 198 62.50Q243 43 291 43Q377 43 424 92Q471 141 471 229Q471 272 455.50 304.50Q440 337 415 354Q390 371 365.50 379Q341 387 317 387L75 387L84 512Q89 584 115 612.50Q141 641 198 641L449 641Q481 641 481 614Q481 589 449 589L192 589Q167 589 154 576Q141 563 138 529L132 439L308 439Q392 439 457.50 382Q523 325 523 229Q523 118 458.50 54.50Q394-9 291-9Q228-9 148.50 26Q69 61 69 95Q69 105 77 113Q85 121 93 121Z"  horiz-adv-x="592" vert-adv-y="1024"  />

      
      <glyph glyph-name="uni36" unicode="&#x36;" d="M64 209Q64 296 86 372.50Q108 449 139 497Q170 545 205 579.50Q240 614 266 629Q292 644 304 644Q333 644 333 621Q333 605 311 594Q259 567 211.50 511.50Q164 456 139 375Q203 428 296 428Q396 428 462 366.50Q528 305 528 210Q528 114 462 52.50Q396-9 296-9Q195-9 129.50 52Q64 113 64 209M116 210Q116 134 164 88.50Q212 43 296 43Q380 43 428 88.50Q476 134 476 210Q476 285 428 330.50Q380 376 296 376Q212 376 164 330.50Q116 285 116 210Z"  horiz-adv-x="592" vert-adv-y="1024"  />

      
      <glyph glyph-name="uni37" unicode="&#x37;" d="M270-10Q260-10 250.50-4.50Q241 1 241 14Q241 24 246 35L457 594L181 594Q149 594 137 580.50Q125 567 125 534Q125 499 99 499Q73 499 73 534Q73 594 96.50 620Q120 646 173 646L493 646Q519 646 519 623Q519 614 515 602L297 16Q287-10 270-10Z"  horiz-adv-x="592" vert-adv-y="1024"  />

      
      <glyph glyph-name="uni38" unicode="&#x38;" d="M124.50 243Q124.50 243 120.25 230Q116 217 116 174Q116 131 124.50 105Q133 79 156 66.50Q179 54 205.50 50.50Q232 47 281 47L312 47Q361 47 387 50.50Q413 54 436 66.50Q459 79 467.50 105Q476 131 476 174Q476 256 441 279Q406 302 312 302L281 302Q233 302 206 298.50Q179 295 156 282Q133 269 124.50 243M528 174Q528 118 513.50 81.50Q499 45 468.50 26.50Q438 8 402 1.50Q366-5 312-5L281-5Q238-5 207.50-1.50Q177 2 148.50 13.50Q120 25 102.50 44Q85 63 74.50 95.50Q64 128 64 174Q64 286 128 326Q64 361 64 472Q64 518 75 550Q86 582 102.50 599.50Q119 617 149.50 626.50Q180 636 208 638.50Q236 641 281 641L312 641Q356 641 384 638.50Q412 636 442.50 626.50Q473 617 489.50 599.50Q506 582 517 550Q528 518 528 472Q528 361 465 326Q528 286 528 174M476 472Q476 497 472.50 515Q469 533 464.50 546Q460 559 448 567Q436 575 426.50 579.50Q417 584 395.50 586Q374 588 358.50 588.50Q343 589 312 589L281 589Q237 589 218 588Q199 587 174 581.50Q149 576 139.50 563.50Q130 551 123 529Q116 507 116 472Q116 437 123 415Q130 393 139.50 380.50Q149 368 173.50 362Q198 356 218 355Q238 354 281 354L312 354Q348 354 365 354.50Q382 355 405.50 358.50Q429 362 438.50 369Q448 376 458.50 389Q469 402 472.50 422.50Q476 443 476 472Z"  horiz-adv-x="592" vert-adv-y="1024"  />

      
      <glyph glyph-name="uni39" unicode="&#x39;" d="M64 471Q64 516 83 549Q102 582 128.50 599Q155 616 192.50 626Q230 636 256.50 638.50Q283 641 312 641Q528 641 528 470Q528 364 496.50 271Q465 178 414.50 116.50Q364 55 300 19.50Q236-16 170-16Q139-16 139 11Q139 37 170 37Q205 37 246.50 54.50Q288 72 331 105.50Q374 139 410 199Q446 259 463 334Q412 302 312 302Q64 302 64 471M312 589Q116 589 116 471Q116 433 133.50 407.50Q151 382 183 371.50Q215 361 243.50 357.50Q272 354 312 354Q401 354 438.50 384Q476 414 476 470Q476 589 312 589Z"  horiz-adv-x="592" vert-adv-y="1024"  />

      
      <glyph glyph-name="uni3a" unicode="&#x3a;" d="M124 121Q140 121 157.50 109Q175 97 175 80Q175 63 157.50 51Q140 39 124 39Q107 39 90 51Q73 63 73 80Q73 97 90 109Q107 121 124 121M124 474Q140 474 157.50 462Q175 450 175 433Q175 416 157.50 404Q140 392 124 392Q107 392 90 404Q73 416 73 433Q73 450 90 462Q107 474 124 474Z"  horiz-adv-x="248" vert-adv-y="1024"  />

      
      <glyph glyph-name="uni3b" unicode="&#x3b;" d="M173 92Q173 82 168 73L127-10Q117-34 102-34Q80-34 80-9Q80-5 83 7L107 94Q114 117 132 117Q143 117 158 111Q173 105 173 92M124 474Q140 474 157.50 462Q175 450 175 433Q175 416 157.50 404Q140 392 124 392Q107 392 90 404Q73 416 73 433Q73 450 90 462Q107 474 124 474Z"  horiz-adv-x="251" vert-adv-y="1024"  />

      
      <glyph glyph-name="uni3c" unicode="&#x3c;" d="M436 89Q426 89 415 96L51 306Q33 317 33 333Q33 348 51 358L415 568Q423 574 435 574Q446 574 453 567.50Q460 561 460 551Q460 543 454 534.50Q448 526 441 523L110 333L440 141Q460 131 460 116Q460 109 454 99Q448 89 436 89Z"  horiz-adv-x="530" vert-adv-y="1024"  />

      
      <glyph glyph-name="uni3d" unicode="&#x3d;" d="M79 384Q79 410 110 410L355 410Q389 410 389 382Q389 371 379.50 364Q370 357 355 357L110 357Q79 357 79 384M79 281Q79 307 110 307L355 307Q389 307 389 279Q389 268 379.50 261Q370 254 355 254L110 254Q79 254 79 281Z"  horiz-adv-x="468" vert-adv-y="1024"  />

      
      <glyph glyph-name="uni3e" unicode="&#x3e;" d="M94 89Q82 89 76 99Q70 109 70 116Q70 131 90 141L420 333L89 523Q82 526 76 534.50Q70 543 70 551Q70 561 77 567.50Q84 574 95 574Q107 574 115 568L479 358Q497 348 497 333Q497 317 479 306L115 96Q104 89 94 89Z"  horiz-adv-x="530" vert-adv-y="1024"  />

      
      <glyph glyph-name="uni3f" unicode="&#x3f;" d="M251 70Q267 70 284.50 58Q302 46 302 29Q302 12 284.50 0Q267-12 251-12Q234-12 217 0Q200 12 200 29Q200 46 217 58Q234 70 251 70M277 194Q277 161 251 161Q225 161 225 194L225 338L382 381Q408 388 425 416Q442 444 442 484Q442 526 418.50 561.50Q395 597 345 597L252 597Q214 597 191.50 595Q169 593 147 586.50Q125 580 114.50 566Q104 552 97.50 529Q91 506 91 471Q91 438 65 438Q38 438 38 471Q38 527 52.50 563.50Q67 600 98 618Q129 636 164 642.50Q199 649 252 649L328 649Q416 649 455 600.50Q494 552 494 484Q494 417 465.50 380Q437 343 367 324L277 299L277 194Z"  horiz-adv-x="536" vert-adv-y="1024"  />

      
      <glyph glyph-name="uni40" unicode="&#x40;" d="M283-5Q186-5 128 60.50Q70 126 70 241L70 395Q70 510 128 575.50Q186 641 283 641L312 641Q409 641 467 575.50Q525 510 525 395Q525 363 524 343Q523 323 518 298.50Q513 274 504 259Q495 244 478.50 228.50Q462 213 438.50 204.50Q415 196 380.50 190.50Q346 185 301 185Q228 185 201.50 219Q175 253 175 332Q175 410 201.50 444Q228 478 301 478Q374 478 401 444Q428 410 428 332Q428 281 418 250Q450 259 461.50 287Q473 315 473 395Q473 487 432 538Q391 589 312 589L283 589Q203 589 162.50 538Q122 487 122 395L122 241Q122 149 162.50 98Q203 47 283 47L417 47Q448 47 460.50 60.50Q473 74 473 109Q473 142 498 142Q525 142 525 106Q525 83 521.50 66Q518 49 508.50 31.50Q499 14 477.50 4.50Q456-5 424-5L283-5M301 237Q350 237 363 256Q376 275 376 332Q376 389 363 407.50Q350 426 301 426Q253 426 240 407.50Q227 389 227 332Q227 274 240 255.50Q253 237 301 237Z"  horiz-adv-x="593" vert-adv-y="1024"  />

      
      <glyph glyph-name="uni41" unicode="&#x41;" d="M316 636L543 25Q546 16 546 9Q546-4 537-10Q528-16 520-16Q503-16 493 7L422 199L148 199L77 7Q67-16 50-16Q42-16 33-10Q24-4 24 9Q24 16 27 25L254 636L316 636M284 560L168 251L402 251L284 560Z"  horiz-adv-x="570" vert-adv-y="1024"  />

      
      <glyph glyph-name="uni42" unicode="&#x42;" d="M136 332L136 52L326 52Q424 52 460 74.50Q496 97 496 178L496 206Q496 287 461 309.50Q426 332 332 332L136 332M84 36L84 600Q84 636 108 636L288 636Q399 636 452.50 605Q506 574 506 486Q506 410 457 374Q503 357 525.50 318.50Q548 280 548 209L548 180Q548 72 494.50 36Q441 0 326 0L108 0Q84 0 84 36M288 384Q380 384 417 403Q454 422 454 481Q454 544 417.50 561.50Q381 579 288 579L136 579L136 384L288 384Z"  horiz-adv-x="605" vert-adv-y="1024"  />

      
      <glyph glyph-name="uni43" unicode="&#x43;" d="M436 0L295 0Q179 0 125.50 36Q72 72 72 180L72 456Q72 564 125 600Q178 636 289 636L436 636Q468 636 489.50 626.50Q511 617 520.50 599.50Q530 582 533 565Q536 548 536 524Q536 489 510 489Q484 489 484 522Q484 557 472 570.50Q460 584 429 584L289 584Q241 584 214 580.50Q187 577 164 564Q141 551 132.50 525Q124 499 124 456L124 180Q124 97 160 74.50Q196 52 295 52L429 52Q461 52 472.50 66Q484 80 484 114Q484 147 510 147Q536 147 536 111Q536 88 533 71Q530 54 520.50 36.50Q511 19 489.50 9.50Q468 0 436 0Z"  horiz-adv-x="592" vert-adv-y="1024"  />

      
      <glyph glyph-name="uni44" unicode="&#x44;" d="M548 456L548 180Q548 72 494.50 36Q441 0 326 0L108 0Q84 0 84 36L84 600Q84 636 108 636L332 636Q386 636 422 629.50Q458 623 488.50 604Q519 585 533.50 548.50Q548 512 548 456M496 180L496 456Q496 538 461 561Q426 584 332 584L136 584L136 52L326 52Q424 52 460 74.50Q496 97 496 180Z"  horiz-adv-x="620" vert-adv-y="1024"  />

      
      <glyph glyph-name="uni45" unicode="&#x45;" d="M136 332L136 52L514 52Q548 52 548 24Q548 0 514 0L108 0Q84 0 84 36L84 600Q84 636 108 636L514 636Q548 636 548 608Q548 584 514 584L136 584L136 384L395 384Q431 384 431 356Q431 332 395 332L136 332Z"  horiz-adv-x="598" vert-adv-y="1024"  />

      
      <glyph glyph-name="uni46" unicode="&#x46;" d="M136 27Q136-7 110-7Q84-7 84 28L84 600Q84 636 108 636L514 636Q548 636 548 608Q548 584 514 584L136 584L136 384L395 384Q431 384 431 356Q431 332 395 332L136 332L136 27Z"  horiz-adv-x="577" vert-adv-y="1024"  />

      
      <glyph glyph-name="uni47" unicode="&#x47;" d="M484 246L353 246Q317 246 317 271Q317 298 353 298L536 298L536 109Q536 60 516.50 30Q497 0 436 0L289 0Q234 0 198 6.50Q162 13 131.50 31Q101 49 86.50 85Q72 121 72 177L72 459Q72 565 125.50 600.50Q179 636 295 636L436 636Q468 636 489.50 626.50Q511 617 520.50 599.50Q530 582 533 565Q536 548 536 525Q536 489 510 489Q484 489 484 523Q484 556 472.50 570Q461 584 429 584L295 584Q196 584 160 561.50Q124 539 124 458L124 178Q124 97 159.50 74.50Q195 52 289 52L429 52Q461 52 472.50 65.50Q484 79 484 112L484 246Z"  horiz-adv-x="606" vert-adv-y="1024"  />

      
      <glyph glyph-name="uni48" unicode="&#x48;" d="M136 27Q136-7 110-7Q84-7 84 27L84 608Q84 643 108 643Q136 643 136 608L136 369L496 369L496 608Q496 643 521 643Q548 643 548 608L548 27Q548-7 523-7Q496-7 496 27L496 317L136 317L136 27Z"  horiz-adv-x="632" vert-adv-y="1024"  />

      
      <glyph glyph-name="uni49" unicode="&#x49;" d="M136 25Q136-7 109-7Q84-7 84 25L84 610Q84 643 110 643Q136 643 136 610L136 25Z"  horiz-adv-x="220" vert-adv-y="1024"  />

      
      <glyph glyph-name="uni4a" unicode="&#x4a;" d="M251 44Q346 44 381.50 66.50Q417 89 417 170L417 611Q417 643 443 643Q469 643 469 610L469 169Q469 113 454.50 77Q440 41 409.50 23Q379 5 342.50-1.50Q306-8 251-8Q196-8 159.50-1.50Q123 5 92 23.50Q61 42 46.50 78.50Q32 115 32 172Q32 205 60 205Q85 205 85 172Q85 89 120 66.50Q155 44 251 44Z"  horiz-adv-x="550" vert-adv-y="1024"  />

      
      <glyph glyph-name="uni4b" unicode="&#x4b;" d="M503 41Q514 28 514 18Q514 8 505 0.50Q496-7 488-7Q475-7 463 8L189 322L136 258L136 25Q136-7 109-7Q84-7 84 25L84 610Q84 643 110 643Q136 643 136 610L136 330L397 628Q408 643 422 643Q430 643 438.50 636Q447 629 447 619Q447 608 437 595L224 356L503 41Z"  horiz-adv-x="518" vert-adv-y="1024"  />

      
      <glyph glyph-name="uni4c" unicode="&#x4c;" d="M108 0Q84 0 84 35L84 611Q84 643 110 643Q136 643 136 611L136 52L459 52Q492 52 492 25Q492 0 459 0L108 0Z"  horiz-adv-x="516" vert-adv-y="1024"  />

      
      <glyph glyph-name="uni4d" unicode="&#x4d;" d="M326 279Q315 279 309 287L136 545L136 28Q136-7 110-7Q84-7 84 27L84 608Q84 643 108 643Q126 643 138 624L326 346L515 624Q528 643 544 643Q569 643 569 608L569 27Q569-7 542-7Q517-7 517 28L517 545L344 287Q338 279 326 279Z"  horiz-adv-x="653" vert-adv-y="1024"  />

      
      <glyph glyph-name="uni4e" unicode="&#x4e;" d="M523-7Q509-7 503 0L136 543L136 26Q136-7 110-7Q84-7 84 27L84 608Q84 643 108 643Q126 643 138 624L496 96L496 607Q496 643 521 643Q548 643 548 608L548 27Q548-7 523-7Z"  horiz-adv-x="632" vert-adv-y="1024"  />

      
      <glyph glyph-name="uni4f" unicode="&#x4f;" d="M464 54.50Q464 54.50 431.50 22.75Q399-9 297-9Q195-9 130 54Q65 117 65 228L65 408Q65 519 130 582Q195 645 297 645Q399 645 464 581.50Q529 518 529 408L529 228Q529 118 464 54.50M430 544Q430 544 406.50 568.50Q383 593 297 593Q211 593 164 544Q117 495 117 407L117 229Q117 141 164 92Q211 43 297 43Q383 43 430 92Q477 141 477 229L477 407Q477 495 430 544Z"  horiz-adv-x="594" vert-adv-y="1024"  />

      
      <glyph glyph-name="uni50" unicode="&#x50;" d="M136 25Q136-7 109-7Q84-7 84 25L84 600Q84 636 108 636L289 636Q397 636 451.50 603Q506 570 506 481Q506 406 460.50 366.50Q415 327 333 327L136 327L136 25M289 379Q381 379 417.50 399Q454 419 454 481Q454 545 417 564.50Q380 584 289 584L136 584L136 379L289 379Z"  horiz-adv-x="540" vert-adv-y="1024"  />

      
      <glyph glyph-name="uni51" unicode="&#x51;" d="M430 544Q430 544 406.50 568.50Q383 593 297 593Q211 593 164 544Q117 495 117 407L117 229Q117 141 164 92Q211 43 297 43Q365 43 406 72L350 124Q337 135 337 147Q337 157 344.50 165Q352 173 363 173Q375 173 389 160L443 107Q477 153 477 229L477 407Q477 495 430 544M297-9Q195-9 130 54Q65 117 65 228L65 408Q65 519 130 582Q195 645 297 645Q399 645 464 581.50Q529 518 529 408L529 228Q529 131 480 71L515 37Q526 24 526 13Q526 4 519-4Q512-12 502-12Q489-12 478-1L443 34Q383-9 297-9Z"  horiz-adv-x="594" vert-adv-y="1024"  />

      
      <glyph glyph-name="uni52" unicode="&#x52;" d="M288 374Q381 374 417.50 394Q454 414 454 476Q454 540 417 559.50Q380 579 288 579L136 579L136 374L288 374M389 332Q422 300 453 225Q484 150 499 93Q514 36 514 25Q514 11 506.50 2Q499-7 487-7Q475-7 468.50 2.50Q462 12 462 25Q462 38 448 91Q434 144 400 217Q366 290 324 322L136 322L136 25Q136-7 109-7Q84-7 84 25L84 600Q84 636 108 636L288 636Q397 636 451.50 603Q506 570 506 481Q506 356 389 332Z"  horiz-adv-x="569" vert-adv-y="1024"  />

      
      <glyph glyph-name="uni53" unicode="&#x53;" d="M113 481Q113 441 130.50 412.50Q148 384 173 379L410 328Q477 313 507 266Q537 219 537 156Q537 89 497.50 40.50Q458-8 367-8L284-8Q227-8 190-1.50Q153 5 121.50 23.50Q90 42 75.50 78.50Q61 115 61 172Q61 205 89 205Q114 205 114 172Q114 89 149.50 66.50Q185 44 284 44L386 44Q439 44 462 80Q485 116 485 157Q485 206 465.50 236.50Q446 267 425 272L190 324Q120 339 90.50 376.50Q61 414 61 482Q61 549 102 596.50Q143 644 238 644L314 644Q371 644 407.50 637.50Q444 631 476 613Q508 595 522.50 559Q537 523 537 466Q537 433 510 433Q484 433 484 466Q484 549 449 570.50Q414 592 314 592L216 592Q162 592 137.50 557Q113 522 113 481Z"  horiz-adv-x="599" vert-adv-y="1024"  />

      
      <glyph glyph-name="uni54" unicode="&#x54;" d="M421 636Q454 636 454 609Q454 584 421 584L269 584L269 25Q269-7 240-7Q214-7 214 25L214 584L60 584Q27 584 27 610Q27 636 60 636L421 636Z"  horiz-adv-x="481" vert-adv-y="1024"  />

      
      <glyph glyph-name="uni55" unicode="&#x55;" d="M490 611Q490 643 517 643Q542 643 542 610L542 228Q542 118 477 54.50Q412-9 310-9Q208-9 143 54Q78 117 78 228L78 610Q78 643 104 643Q130 643 130 611L130 229Q130 141 177 92Q224 43 310 43Q396 43 443 92Q490 141 490 229L490 611Z"  horiz-adv-x="620" vert-adv-y="1024"  />

      
      <glyph glyph-name="uni56" unicode="&#x56;" d="M286 76L493 629Q503 652 520 652Q528 652 537 646Q546 640 546 627Q546 620 543 611L316 0L254 0L27 611Q24 620 24 627Q24 640 33 646Q42 652 50 652Q67 652 77 629L286 76Z"  horiz-adv-x="570" vert-adv-y="1024"  />

      
      <glyph glyph-name="uni57" unicode="&#x57;" d="M664 72L836 627Q844 649 864 649Q888 649 888 630Q888 624 884 612L692 0L634 0L457 553L281 0L224 0L31 616Q27 628 27 634Q27 653 51 653Q71 653 79 631L253 72L428 626Q437 652 457 652Q480 652 488 626L664 72Z"  horiz-adv-x="915" vert-adv-y="1024"  />

      
      <glyph glyph-name="uni58" unicode="&#x58;" d="M497 643Q505 643 514 637Q523 631 523 617Q523 605 515 596L312 317L515 39Q523 28 523 17Q523 6 514.50-0.50Q506-7 497-7Q484-7 472 9L279 277L87 9Q75-7 61-7Q52-7 44 0Q36 7 36 17Q36 28 44 39L247 317L44 596Q36 605 36 617Q36 631 45 637Q54 643 61 643Q74 643 87 625L279 358L472 625Q486 643 497 643Z"  horiz-adv-x="559" vert-adv-y="1024"  />

      
      <glyph glyph-name="uni59" unicode="&#x59;" d="M234 308L25 597Q17 609 17 618Q17 629 25 636Q33 643 42 643Q53 643 67 625L260 358L452 625Q465 643 478 643Q486 643 494.50 635.50Q503 628 503 618Q503 609 495 597L287 308L287 24Q287-7 260-7Q234-7 234 24L234 308Z"  horiz-adv-x="521" vert-adv-y="1024"  />

      
      <glyph glyph-name="uni5a" unicode="&#x5a;" d="M46 0L46 51L447 594L81 594Q45 594 45 620Q45 646 81 646L509 646L509 593L110 52L474 52Q509 52 509 25Q509 0 474 0L46 0Z"  horiz-adv-x="555" vert-adv-y="1024"  />

      
      <glyph glyph-name="uni5b" unicode="&#x5b;" d="M132 631L132 5L210 5L210-47L80-47L80 683L210 683L210 631L132 631Z"  horiz-adv-x="255" vert-adv-y="1024"  />

      
      <glyph glyph-name="uni5c" unicode="&#x5c;" d="M95 627L313 29Q316 17 316 11Q316-2 307-7.50Q298-13 289-13Q272-13 264 10L46 608Q43 618 43 626Q43 639 51.50 644.50Q60 650 69 650Q87 650 95 627Z"  horiz-adv-x="359" vert-adv-y="1024"  />

      
      <glyph glyph-name="uni5d" unicode="&#x5d;" d="M123 5L123 631L45 631L45 683L175 683L175-47L45-47L45 5L123 5Z"  horiz-adv-x="255" vert-adv-y="1024"  />

      
      <glyph glyph-name="uni5e" unicode="&#x5e;" d="M222 581L132 381Q121 360 103 360Q93 360 86.50 366.50Q80 373 80 383Q80 387 82 395L192 641L252 641L361 395Q363 391 363 383Q363 360 340 360Q322 360 311 381L222 581Z"  horiz-adv-x="443" vert-adv-y="1024"  />

      
      <glyph glyph-name="uni5f" unicode="&#x5f;" d="M-5-20Q-5 5 28 5L447 5Q480 5 480-22Q480-47 447-47L28-47Q-5-47-5-20Z"  horiz-adv-x="475" vert-adv-y="1024"  />

      
      <glyph glyph-name="uni60" unicode="&#x60;" d="M54 683Q66 683 79 668L175 553Q184 542 184 530Q184 519 176 512Q168 505 159 505Q148 505 134 520L38 635Q29 646 29 657Q29 668 37 675.50Q45 683 54 683Z"  horiz-adv-x="212" vert-adv-y="1024"  />

      
      <glyph glyph-name="uni61" unicode="&#x61;" d="M283 243Q232 243 204.50 239.50Q177 236 153 223.50Q129 211 120.50 186Q112 161 112 118Q112 92 129 72Q146 52 167 52L260 52Q344 52 387 97.50Q430 143 430 228L430 243L283 243M283 295L430 295L430 352Q430 383 418.50 396Q407 409 375 409L234 409Q112 409 112 349Q112 314 85 314Q60 314 60 349Q60 407 106 434Q152 461 227 461L382 461Q440 461 461 433Q482 405 482 335L482 27Q482-7 456-7Q430-7 430 28L430 63Q373 0 260 0L167 0Q120 0 90 33.50Q60 67 60 123Q60 224 114.50 259.50Q169 295 283 295Z"  horiz-adv-x="554" vert-adv-y="1024"  />

      
      <glyph glyph-name="uni62" unicode="&#x62;" d="M127 398Q186 461 298 461L327 461Q442 461 495.50 425.50Q549 390 549 285L549 176Q549 71 495.50 35.50Q442 0 327 0L298 0Q186 0 127 63L127 28Q127-7 101-7Q75-7 75 27L75 607Q75 643 99 643Q127 643 127 607L127 398M298 409Q127 409 127 232L127 228Q127 52 298 52L327 52Q378 52 405.50 55.50Q433 59 456.50 71.50Q480 84 488.50 109Q497 134 497 177L497 284Q497 327 488.50 352Q480 377 456.50 389.50Q433 402 405.50 405.50Q378 409 327 409L298 409Z"  horiz-adv-x="611" vert-adv-y="1024"  />

      
      <glyph glyph-name="uni63" unicode="&#x63;" d="M426 0L285 0Q170 0 116 35.50Q62 71 62 176L62 285Q62 390 116 425.50Q170 461 285 461L426 461Q458 461 479.50 451.50Q501 442 510.50 424Q520 406 523 389Q526 372 526 349Q526 314 500 314Q474 314 474 347Q474 382 462 395.50Q450 409 419 409L285 409Q234 409 206.50 405.50Q179 402 155 389.50Q131 377 122.50 352Q114 327 114 284L114 177Q114 134 122.50 109Q131 84 155 71.50Q179 59 206.50 55.50Q234 52 285 52L419 52Q451 52 462.50 66Q474 80 474 114Q474 147 500 147Q526 147 526 111Q526 88 523 71Q520 54 510.50 36.50Q501 19 479.50 9.50Q458 0 426 0Z"  horiz-adv-x="584" vert-adv-y="1024"  />

      
      <glyph glyph-name="uni64" unicode="&#x64;" d="M484 461L484 607Q484 643 512 643Q536 643 536 607L536 27Q536-7 510-7Q484-7 484 28L484 63Q425 0 313 0L284 0Q169 0 115.50 35.50Q62 71 62 176L62 285Q62 390 115.50 425.50Q169 461 284 461L484 461M484 409L284 409Q233 409 205.50 405.50Q178 402 154.50 389.50Q131 377 122.50 352Q114 327 114 284L114 177Q114 134 122.50 109Q131 84 154.50 71.50Q178 59 205.50 55.50Q233 52 284 52L313 52Q484 52 484 228L484 409Z"  horiz-adv-x="611" vert-adv-y="1024"  />

      
      <glyph glyph-name="uni65" unicode="&#x65;" d="M536 285L536 245L114 245L114 177Q114 134 122.50 109Q131 84 155 71.50Q179 59 206.50 55.50Q234 52 285 52L419 52Q451 52 462.50 66Q474 80 474 114Q474 147 500 147Q526 147 526 111Q526 88 523 71Q520 54 510.50 36.50Q501 19 479.50 9.50Q458 0 426 0L285 0Q170 0 116 35.50Q62 71 62 176L62 285Q62 390 116 425.50Q170 461 285 461L314 461Q429 461 482.50 425.50Q536 390 536 285M314 409L285 409Q188 409 151.50 388.50Q115 368 114 297L484 297Q483 368 446.50 388.50Q410 409 314 409Z"  horiz-adv-x="592" vert-adv-y="1024"  />

      
      <glyph glyph-name="uni66" unicode="&#x66;" d="M293 584Q246 584 220.50 580.50Q195 577 172.50 565Q150 553 141 528Q132 503 132 461L270 461Q306 461 306 433Q306 409 270 409L132 409L132 28Q132-7 104-7Q80-7 80 28L80 410Q49 412 49 437Q49 459 80 461Q81 516 95.50 552Q110 588 140.50 606Q171 624 205.50 630Q240 636 293 636Q329 636 329 608Q329 584 293 584Z"  horiz-adv-x="323" vert-adv-y="1024"  />

      
      <glyph glyph-name="uni67" unicode="&#x67;" d="M536-87Q536-152 517-178.50Q498-205 445-205L162-205Q130-205 108.50-195.50Q87-186 77.50-168Q68-150 65-133Q62-116 62-93Q62-58 88-58Q114-58 114-91Q114-126 126-139.50Q138-153 169-153L438-153Q467-153 475.50-143Q484-133 484-103L484 0L284 0Q169 0 115.50 35.50Q62 71 62 176L62 285Q62 390 115.50 425.50Q169 461 284 461L313 461Q425 461 484 398L484 433Q484 468 510 468Q536 468 536 434L536-87M484 52L484 233Q484 409 313 409L284 409Q233 409 205.50 405.50Q178 402 154.50 389.50Q131 377 122.50 352Q114 327 114 284L114 177Q114 134 122.50 109Q131 84 154.50 71.50Q178 59 205.50 55.50Q233 52 284 52L484 52Z"  horiz-adv-x="611" vert-adv-y="1024"  />

      
      <glyph glyph-name="uni68" unicode="&#x68;" d="M298 409Q213 409 170 363.50Q127 318 127 231L127 27Q127-7 101-7Q75-7 75 27L75 607Q75 643 99 643Q127 643 127 607L127 398Q186 461 298 461L327 461Q442 461 495.50 425.50Q549 390 549 285L549 27Q549-7 524-7Q497-7 497 27L497 284Q497 327 488.50 352Q480 377 456.50 389.50Q433 402 405.50 405.50Q378 409 327 409L298 409Z"  horiz-adv-x="619" vert-adv-y="1024"  />

      
      <glyph glyph-name="uni69" unicode="&#x69;" d="M99-12Q74-12 74 20L74 440Q74 473 100 473Q126 473 126 440L126 20Q126-12 99-12M100 642Q116 642 133.50 630Q151 618 151 601Q151 584 133.50 572Q116 560 100 560Q83 560 66 572Q49 584 49 601Q49 618 66 630Q83 642 100 642Z"  horiz-adv-x="200" vert-adv-y="1024"  />

      
      <glyph glyph-name="uni6a" unicode="&#x6a;" d="M99 642Q115 642 132.50 630Q150 618 150 601Q150 584 132.50 572Q115 560 99 560Q82 560 65 572Q48 584 48 601Q48 618 65 630Q82 642 99 642M127 0Q127-56 112.50-91.50Q98-127 67.50-145Q37-163 2-169Q-33-175-86-175Q-122-175-122-148Q-122-123-86-123Q6-123 40.50-101Q75-79 75 0L75 432Q75 468 102 468Q127 468 127 432L127 0Z"  horiz-adv-x="202" vert-adv-y="1024"  />

      
      <glyph glyph-name="uni6b" unicode="&#x6b;" d="M442 19Q442 10 435 2Q428-6 418-6Q407-6 393 6L156 235L127 206L127 25Q127-7 100-7Q75-7 75 24L75 610Q75 643 101 643Q127 643 127 610L127 269L321 454Q334 466 345 466Q354 466 362 458.50Q370 451 370 440Q370 429 358 417L192 265L431 43Q442 30 442 19Z"  horiz-adv-x="454" vert-adv-y="1024"  />

      
      <glyph glyph-name="uni6c" unicode="&#x6c;" d="M197 0L190 0Q132 0 111 28.50Q90 57 90 127L90 608Q90 643 116 643Q142 643 142 608L142 110Q142 78 153.50 65Q165 52 197 52Q232 52 232 25Q232 0 197 0Z"  horiz-adv-x="271" vert-adv-y="1024"  />

      
      <glyph glyph-name="uni6d" unicode="&#x6d;" d="M257 409Q195 409 160.50 363Q126 317 126 231L126 27Q126-7 100-7Q74-7 74 27L74 433Q74 468 98 468Q126 468 126 432L126 398Q154 432 183 446.50Q212 461 257 461Q325 461 367 444.50Q409 428 428 381Q479 461 575 461Q667 461 713 425Q759 389 759 285L759 27Q759-7 733-7Q707-7 707 27L707 284Q707 327 700.50 352Q694 377 676 389.50Q658 402 636.50 405.50Q615 409 575 409Q512 409 477 363Q442 317 442 231L442 27Q442-7 417-7Q390-7 390 27L390 284Q390 365 362.50 387Q335 409 257 409Z"  horiz-adv-x="830" vert-adv-y="1024"  />

      
      <glyph glyph-name="uni6e" unicode="&#x6e;" d="M297 409Q212 409 169 363.50Q126 318 126 231L126 27Q126-7 100-7Q74-7 74 27L74 433Q74 468 98 468Q126 468 126 432L126 398Q185 461 297 461L326 461Q441 461 494.50 425.50Q548 390 548 285L548 27Q548-7 523-7Q496-7 496 27L496 284Q496 327 487.50 352Q479 377 455.50 389.50Q432 402 404.50 405.50Q377 409 326 409L297 409Z"  horiz-adv-x="617" vert-adv-y="1024"  />

      
      <glyph glyph-name="uni6f" unicode="&#x6f;" d="M314 0L285 0Q170 0 116 35.50Q62 71 62 176L62 285Q62 390 116 425.50Q170 461 285 461L314 461Q429 461 482.50 425.50Q536 390 536 285L536 176Q536 71 482.50 35.50Q429 0 314 0M285 52L314 52Q365 52 392.50 55.50Q420 59 443.50 71.50Q467 84 475.50 109Q484 134 484 177L484 284Q484 327 475.50 352Q467 377 443.50 389.50Q420 402 392.50 405.50Q365 409 314 409L285 409Q234 409 206.50 405.50Q179 402 155 389.50Q131 377 122.50 352Q114 327 114 284L114 177Q114 134 122.50 109Q131 84 155 71.50Q179 59 206.50 55.50Q234 52 285 52Z"  horiz-adv-x="598" vert-adv-y="1024"  />

      
      <glyph glyph-name="uni70" unicode="&#x70;" d="M497 284Q497 327 488.50 352Q480 377 456.50 389.50Q433 402 405.50 405.50Q378 409 327 409L298 409Q127 409 127 232L127 52L328 52Q426 52 461.50 74Q497 96 497 177L497 284M549 176Q549 71 495.50 35.50Q442 0 328 0L127 0L127-147Q127-182 99-182Q75-182 75-147L75 434Q75 468 101 468Q127 468 127 433L127 398Q186 461 298 461L327 461Q442 461 495.50 425.50Q549 390 549 285L549 176Z"  horiz-adv-x="611" vert-adv-y="1024"  />

      
      <glyph glyph-name="uni71" unicode="&#x71;" d="M114 284L114 177Q114 134 122.50 109Q131 84 154.50 71.50Q178 59 205.50 55.50Q233 52 284 52L484 52L484 232Q484 409 314 409L285 409Q234 409 206.50 405.50Q179 402 155 389.50Q131 377 122.50 352Q114 327 114 284M62 176L62 285Q62 390 116 425.50Q170 461 285 461L314 461Q427 461 484 398L484 433Q484 468 510 468Q536 468 536 434L536-147Q536-182 512-182Q484-182 484-147L484 0L284 0Q169 0 115.50 35.50Q62 71 62 176Z"  horiz-adv-x="611" vert-adv-y="1024"  />

      
      <glyph glyph-name="uni72" unicode="&#x72;" d="M287 409Q209 409 167.50 363Q126 317 126 231L126 27Q126-7 100-7Q74-7 74 27L74 433Q74 468 98 468Q126 468 126 432L126 398Q185 461 287 461L333 461Q368 461 368 435Q368 409 333 409L287 409Z"  horiz-adv-x="383" vert-adv-y="1024"  />

      
      <glyph glyph-name="uni73" unicode="&#x73;" d="M160 0Q128 0 106.50 9.50Q85 19 75.50 36.50Q66 54 63 71Q60 88 60 111Q60 147 86 147Q112 147 112 114Q112 80 123.50 66Q135 52 167 52L415 52Q474 52 474 126Q474 163 457.50 186.50Q441 210 415 210L189 210Q60 210 60 340Q60 400 91 430.50Q122 461 199 461L424 461Q456 461 477.50 451.50Q499 442 508.50 424Q518 406 521 389Q524 372 524 349Q524 314 498 314Q472 314 472 347Q472 382 460 395.50Q448 409 417 409L171 409Q112 409 112 340Q112 302 128.50 282Q145 262 171 262L398 262Q468 262 497 223Q526 184 526 126Q526 64 494.50 32Q463 0 388 0L160 0Z"  horiz-adv-x="586" vert-adv-y="1024"  />

      
      <glyph glyph-name="uni74" unicode="&#x74;" d="M130 177Q130 96 164.50 74Q199 52 291 52Q326 52 326 28Q326 0 291 0Q183 0 130.50 36Q78 72 78 176L78 410Q47 412 47 437Q47 459 78 461L78 565Q78 601 102 601Q130 601 130 565L130 461L268 461Q304 461 304 433Q304 409 268 409L130 409L130 177Z"  horiz-adv-x="344" vert-adv-y="1024"  />

      
      <glyph glyph-name="uni75" unicode="&#x75;" d="M321 52Q406 52 449 97.50Q492 143 492 230L492 434Q492 468 518 468Q544 468 544 434L544 28Q544-7 520-7Q492-7 492 29L492 63Q433 0 321 0L292 0Q177 0 123.50 35.50Q70 71 70 176L70 434Q70 468 95 468Q122 468 122 434L122 177Q122 134 130.50 109Q139 84 162.50 71.50Q186 59 213.50 55.50Q241 52 292 52L321 52Z"  horiz-adv-x="618" vert-adv-y="1024"  />

      
      <glyph glyph-name="uni76" unicode="&#x76;" d="M212 0L32 436Q28 445 28 452Q28 473 52 473Q70 473 80 451L252 51L430 452Q439 473 458 473Q482 473 482 453Q482 445 478 436L286 0L212 0Z"  horiz-adv-x="509" vert-adv-y="1024"  />

      
      <glyph glyph-name="uni77" unicode="&#x77;" d="M758 436L603 0L524 0L397 374L260 0L181 0L35 436Q31 448 31 454Q31 473 55 473Q75 473 83 451L223 48L369 446Q377 467 398 467Q418 467 425 446L565 48L710 451Q718 473 738 473Q762 473 762 454Q762 448 758 436Z"  horiz-adv-x="792" vert-adv-y="1024"  />

      
      <glyph glyph-name="uni78" unicode="&#x78;" d="M472 12Q472 2 464-4.50Q456-11 447-11Q435-11 423 1L257 194L90 1Q76-11 65-11Q56-11 48-4.50Q40 2 40 12Q40 16 50 36L221 230L50 425Q40 437 40 448Q40 458 48 465Q56 472 65 472Q76 472 90 460L257 267L423 460Q435 472 447 472Q456 472 464 465Q472 458 472 448Q472 437 462 425L291 230L462 36Q472 21 472 12Z"  horiz-adv-x="512" vert-adv-y="1024"  />

      
      <glyph glyph-name="uni79" unicode="&#x79;" d="M544-87Q544-152 525-178.50Q506-205 453-205L170-205Q138-205 116.50-195.50Q95-186 85.50-168Q76-150 73-133Q70-116 70-93Q70-58 96-58Q122-58 122-91Q122-126 134-139.50Q146-153 177-153L446-153Q475-153 483.50-143Q492-133 492-103L492 63Q433 0 321 0L292 0Q177 0 123.50 35.50Q70 71 70 176L70 434Q70 468 95 468Q122 468 122 434L122 177Q122 134 130.50 109Q139 84 162.50 71.50Q186 59 213.50 55.50Q241 52 292 52L321 52Q406 52 449 97.50Q492 143 492 230L492 434Q492 468 518 468Q544 468 544 434L544-87Z"  horiz-adv-x="619" vert-adv-y="1024"  />

      
      <glyph glyph-name="uni7a" unicode="&#x7a;" d="M126 52L393 52Q429 52 439 70Q449 88 449 129Q449 165 475 165Q501 165 501 129Q501 59 480 29.50Q459 0 401 0L59 0L59 64L416 409L166 409Q131 409 121 391Q111 373 111 332Q111 296 84 296Q59 296 59 332Q59 403 80 432Q101 461 159 461L480 461L480 394L126 52Z"  horiz-adv-x="552" vert-adv-y="1024"  />

      
      <glyph glyph-name="uni7b" unicode="&#x7b;" d="M163 236Q163 210 149 164Q135 118 135 108Q135 38 147.50 21.50Q160 5 213 5L213-47Q143-47 113-17Q83 13 83 108Q83 127 97 173Q111 219 111 236Q111 258 85 280.50Q59 303 38 313L38 321Q59 332 85 355Q111 378 111 400Q111 417 97 463Q83 509 83 528Q83 623 113 653Q143 683 213 683L213 631Q161 631 148 614Q135 597 135 528Q135 518 149 472Q163 426 163 400Q163 360 92 317Q163 278 163 236Z"  horiz-adv-x="262" vert-adv-y="1024"  />

      
      <glyph glyph-name="uni7c" unicode="&#x7c;" d="M133 25Q133-7 106-7Q81-7 81 25L81 610Q81 643 107 643Q133 643 133 610L133 25Z"  horiz-adv-x="214" vert-adv-y="1024"  />

      
      <glyph glyph-name="uni7d" unicode="&#x7d;" d="M99 236Q99 278 170 317Q99 360 99 400Q99 426 113 472Q127 518 127 528Q127 597 114 614Q101 631 49 631L49 683Q119 683 149 653Q179 623 179 528Q179 509 165 463Q151 417 151 400Q151 378 177 355Q203 332 224 321L224 313Q203 303 177 280.50Q151 258 151 236Q151 219 165 173Q179 127 179 108Q179 13 149-17Q119-47 49-47L49 5Q102 5 114.50 21.50Q127 38 127 108Q127 118 113 164Q99 210 99 236Z"  horiz-adv-x="262" vert-adv-y="1024"  />

      
      <glyph glyph-name="uni7e" unicode="&#x7e;" d="M266 234Q269 234 274 238L305 266Q318 275 327 275Q337 275 345 269Q353 263 353 252Q353 238 339 225L292 186Q284 178 273 178Q271 178 269 178.50Q267 179 265.50 179Q264 179 262 180L261 180L163 216Q161 218 157 218Q154 218 149 214L118 186Q105 177 96 177Q87 177 79 183.50Q71 190 71 201Q71 216 85 227L131 265Q138 274 150 274Q152 274 157 273Q162 272 163 272L261 236L266 234Z"  horiz-adv-x="425" vert-adv-y="1024"  />

      
      <glyph glyph-name="unia1" unicode="&#xa1;" d="M114-170Q89-170 89-138L89 282Q89 315 115 315Q141 315 141 282L141-138Q141-170 114-170M114 491Q132 491 149 479Q166 467 166 450Q166 433 148.50 421Q131 409 114 409Q98 409 80.50 421Q63 433 63 450Q63 467 80.50 479Q98 491 114 491Z"  horiz-adv-x="230" vert-adv-y="1024"  />

      
      <glyph glyph-name="unia2" unicode="&#xa2;" d="M243-12Q218-12 218 20L218 118Q133 123 91 162Q49 201 49 298L49 340Q49 435 92 474.50Q135 514 218 519L218 615Q218 648 245 648Q270 648 270 615L270 520L322 520Q354 520 375 510.50Q396 501 405.50 483.50Q415 466 418 449.50Q421 433 421 409Q421 373 396 373Q369 373 369 407Q369 442 357.50 455Q346 468 315 468L270 468L270 170L313 170Q344 170 356.50 183Q369 196 369 231Q369 265 394 265Q421 265 421 229Q421 206 417.50 189Q414 172 404.50 154.50Q395 137 373.50 127.50Q352 118 320 118L270 118L270 20Q270-12 243-12M218 171L218 467Q155 464 128 437.50Q101 411 101 340L101 298Q101 225 127 199.50Q153 174 218 171Z"  horiz-adv-x="478" vert-adv-y="1024"  />

      
      <glyph glyph-name="unia3" unicode="&#xa3;" d="M65 23Q65 29 66 32L104 468Q109 524 125.50 561.50Q142 599 169.50 617Q197 635 224.50 641.50Q252 648 288 648Q359 648 400 617.50Q441 587 441 501Q441 468 414 468Q389 468 389 501Q389 562 364 579Q339 596 284 596Q225 596 194 572Q163 548 156 468L147 369L181 369Q213 369 213 342Q213 317 181 317L143 317L119 47L410 47Q443 47 443 20Q443-5 410-5L87-5Q65-5 65 23Z"  horiz-adv-x="501" vert-adv-y="1024"  />

      
      <glyph glyph-name="unia4" unicode="&#xa4;" d="M143 230Q143 187 174 156.50Q205 126 248 126Q291 126 321.50 156.50Q352 187 352 230Q352 273 321.50 304Q291 335 248 335Q204 335 173.50 304.50Q143 274 143 230M99 230Q99 278 125 315L80 360Q68 374 68 384Q68 393 76.50 401Q85 409 93 409Q103 409 117 397L162 352Q200 379 248 379Q296 379 333 352L377 397Q390 409 402 409Q410 409 418.50 402.50Q427 396 427 385Q427 372 413 360L369 315Q396 279 396 230Q396 182 369 145L413 101Q427 87 427 77Q427 69 418.50 60Q410 51 401 51Q390 51 377 65L333 109Q296 82 248 82Q200 82 162 109L117 65Q105 51 92 51Q84 51 76 58Q68 65 68 76Q68 88 80 101L125 146Q99 183 99 230Z"  horiz-adv-x="495" vert-adv-y="1024"  />

      
      <glyph glyph-name="unia5" unicode="&#xa5;" d="M39 601Q31 613 31 623Q31 634 39 641Q47 648 56 648Q67 648 81 630L269 363L456 630Q468 648 482 648Q490 648 498.50 640.50Q507 633 507 623Q507 613 499 601L295 308L295 277L389 277Q422 277 422 250Q422 225 389 225L295 225L295 188L389 188Q422 188 422 161Q422 136 389 136L295 136L295 20Q295-12 269-12Q244-12 244 20L244 136L144 136Q112 136 112 163Q112 188 144 188L244 188L244 225L144 225Q112 225 112 252Q112 277 144 277L244 277L244 308L39 601Z"  horiz-adv-x="538" vert-adv-y="1024"  />

      
      <glyph glyph-name="unia6" unicode="&#xa6;" d="M107 648Q132 648 132 616L132 401Q132 368 105 368Q81 368 81 401L81 616Q81 648 107 648M107 268Q132 268 132 237L132 22Q132-12 105-12Q81-12 81 22L81 237Q81 268 107 268Z"  horiz-adv-x="213" vert-adv-y="1024"  />

      
      <glyph glyph-name="unia7" unicode="&#xa7;" d="M399 194Q445 167 445 99Q445-5 340-5L156-5Q107-5 91 19.50Q75 44 75 86Q75 116 102 116Q113 116 120 108Q127 100 127 88Q127 62 134 54.50Q141 47 167 47L351 47Q375 47 384 59Q393 71 393 99Q393 164 354 169L179 194Q75 208 75 306Q75 377 121 400Q75 427 75 495Q75 599 180 599L365 599Q399 599 417.50 584.50Q436 570 440.50 552.50Q445 535 445 508Q445 478 419 478Q407 478 400 486Q393 494 393 506Q393 532 386 539.50Q379 547 353 547L169 547Q145 547 136 534.50Q127 522 127 495Q127 430 166 425L341 400Q445 386 445 289Q445 217 399 194M127 306Q127 266 179.50 246Q232 226 312 226Q364 226 378.50 236Q393 246 393 289Q393 331 336.50 349.50Q280 368 208 368Q156 368 141.50 358Q127 348 127 306Z"  horiz-adv-x="520" vert-adv-y="1024"  />

      
      <glyph glyph-name="unia8" unicode="&#xa8;" d="M111 671Q127 671 144.50 659Q162 647 162 630Q162 613 144.50 601Q127 589 111 589Q94 589 77 601Q60 613 60 630Q60 647 77 659Q94 671 111 671M257 671Q273 671 290.50 659Q308 647 308 630Q308 613 290.50 601Q273 589 257 589Q240 589 223 601Q206 613 206 630Q206 647 223 659Q240 671 257 671Z"  horiz-adv-x="367" vert-adv-y="1024"  />

      
      <glyph glyph-name="unia9" unicode="&#xa9;" d="M406 363Q406 346 385 346Q367 346 367 361Q367 372 363.50 376Q360 380 349 380L301 380Q277 380 261.50 368.50Q246 357 246 337L246 298Q246 278 261.50 266.50Q277 255 301 255L349 255Q365 255 366.50 268.50Q368 282 372 285Q377 289 385 289Q393 289 399.50 284Q406 279 406 272Q406 251 394 232.50Q382 214 351 214L301 214Q262 214 234 235.50Q206 257 206 298L206 337Q206 378 234 399.50Q262 421 301 421L351 421Q381 421 393.50 403Q406 385 406 363M292 82Q239 82 203.50 88.50Q168 95 138 114Q108 133 93.50 169.50Q79 206 79 262L79 373Q79 429 93.50 465.50Q108 502 138 521Q168 540 203.50 546.50Q239 553 292 553L321 553Q429 553 481 516.50Q533 480 533 373L533 262Q533 155 481 118.50Q429 82 321 82L292 82M292 134L321 134Q412 134 446.50 157Q481 180 481 262L481 373Q481 455 446.50 478Q412 501 321 501L292 501Q200 501 165.50 478Q131 455 131 373L131 262Q131 180 165.50 157Q200 134 292 134Z"  horiz-adv-x="612" vert-adv-y="1024"  />

      
      <glyph glyph-name="uniaa" unicode="&#xaa;" d="M65 182Q65 204 91 204L287 204Q315 204 315 180Q315 159 287 159L91 159Q65 159 65 182M249 349L192 349Q157 349 144 341.50Q131 334 131 309Q131 300 136.50 292.50Q142 285 150 285L187 285Q246 285 249 349M270 241Q249 241 249 258L249 270Q231 244 187 244L150 244Q124 244 107 264.50Q90 285 90 311Q90 356 115 373Q140 390 192 390L249 390L249 404Q249 416 244.50 420.50Q240 425 229 425L150 425Q138 425 134.50 420.50Q131 416 131 407.50Q131 399 129 396Q122 387 111 387Q90 387 90 404Q90 430 106 448Q122 466 147 466L232 466Q290 466 290 397L290 258Q288 241 270 241Z"  horiz-adv-x="380" vert-adv-y="1024"  />

      
      <glyph glyph-name="uniab" unicode="&#xab;" d="M208 358L390 527Q398 535 413 535Q433 535 433 515Q433 498 419 483L264 333L419 182Q433 167 433 150Q433 130 413 130Q397 130 390 137L208 306Q190 320 190 333Q190 342 208 358M54 358L236 527Q244 535 259 535Q279 535 279 515Q279 498 265 483L110 333L265 182Q279 167 279 150Q279 130 259 130Q243 130 236 137L54 306Q36 320 36 333Q36 342 54 358Z"  horiz-adv-x="503" vert-adv-y="1024"  />

      
      <glyph glyph-name="uniac" unicode="&#xac;" d="M443 141Q443 108 415 108Q390 108 390 141L390 204L111 204Q80 204 80 231Q80 257 111 257L409 257Q443 257 443 225L443 141Z"  horiz-adv-x="522" vert-adv-y="1024"  />

      
      <glyph glyph-name="uniad" unicode="&#xad;" d="M73 231Q73 257 104 257L349 257Q383 257 383 229Q383 218 373.50 211Q364 204 349 204L104 204Q73 204 73 231Z"  horiz-adv-x="456" vert-adv-y="1024"  />

      
      <glyph glyph-name="uniae" unicode="&#xae;" d="M292 134L321 134Q412 134 446.50 157Q481 180 481 262L481 373Q481 455 446.50 478Q412 501 321 501L292 501Q200 501 165.50 478Q131 455 131 373L131 262Q131 180 165.50 157Q200 134 292 134M292 82Q239 82 203.50 88.50Q168 95 138 114Q108 133 93.50 169.50Q79 206 79 262L79 373Q79 429 93.50 465.50Q108 502 138 521Q168 540 203.50 546.50Q239 553 292 553L321 553Q429 553 481 516.50Q533 480 533 373L533 262Q533 155 481 118.50Q429 82 321 82L292 82M417 217Q417 211 410.50 207Q404 203 397 203Q388 203 382 207.50Q376 212 376 216Q373 228 355 256Q337 284 314 298L243 298L243 217Q243 203 222 203Q214 203 208 207Q202 211 202 217L202 411Q202 417 208 421.50Q214 426 221 426L305 426Q414 426 414 361Q414 341 401 324.50Q388 308 366 301Q380 289 398.50 259.50Q417 230 417 217M305 339Q344 339 358.50 343Q373 347 373 361Q373 376 359 380.50Q345 385 305 385L243 385L243 339L305 339Z"  horiz-adv-x="612" vert-adv-y="1024"  />

      
      <glyph glyph-name="uniaf" unicode="&#xaf;" d="M60 700Q60 726 91 726L336 726Q370 726 370 698Q370 687 360.50 680Q351 673 336 673L91 673Q60 673 60 700Z"  horiz-adv-x="429" vert-adv-y="1024"  />

      
      <glyph glyph-name="unib0" unicode="&#xb0;" d="M132.50 603.50Q132.50 603.50 118.25 589.25Q104 575 104 535Q104 495 132.50 466Q161 437 201 437Q242 437 270.50 465.50Q299 494 299 535Q299 575 270 603.50Q241 632 201 632Q161 632 132.50 603.50M96.50 639.50Q96.50 639.50 118.25 661.25Q140 683 201 683Q262 683 306 639.50Q350 596 350 535Q350 474 306 430Q262 386 201 386Q140 386 96.50 430Q53 474 53 535Q53 596 96.50 639.50Z"  horiz-adv-x="403" vert-adv-y="1024"  />

      
      <glyph glyph-name="unib1" unicode="&#xb1;" d="M511 25Q511 14 501.50 7Q492 0 477 0L99 0Q68 0 68 28Q68 53 99 53L477 53Q511 53 511 25M315 143Q315 111 289 111Q263 111 263 143L263 265L99 265Q68 265 68 293Q68 318 99 318L263 318L263 440Q263 473 290 473Q315 473 315 440L315 318L477 318Q511 318 511 291Q511 265 477 265L315 265L315 143Z"  horiz-adv-x="579" vert-adv-y="1024"  />

      
      <glyph glyph-name="unib2" unicode="&#xb2;" d="M280 477Q280 471 271.50 463.50Q263 456 253 456L45 456L45 483Q45 519 65 547.50Q85 576 113 593Q141 610 169 624Q197 638 217 652.50Q237 667 237 682Q237 714 221 721.50Q205 729 155 729L129 729Q91 729 91 703Q91 693 84 686.50Q77 680 68 680Q60 680 52.50 686.50Q45 693 45 703Q45 733 69 752.50Q93 772 125 772L155 772Q186 772 205 769.50Q224 767 243 758.50Q262 750 271 731Q280 712 280 682Q280 654 251.50 628.50Q223 603 189 587.50Q155 572 125 548.50Q95 525 92 499L253 499Q264 498 272 491.50Q280 485 280 477Z"  horiz-adv-x="325" vert-adv-y="1024"  />

      
      <glyph glyph-name="unib3" unicode="&#xb3;" d="M138 729Q115 729 96.50 721Q78 713 78 701Q78 683 54 683Q32 683 32 703Q32 727 60.50 749.50Q89 772 134 772L146 772Q205 772 230 751.50Q255 731 255 684Q255 643 196 618Q219 608 237 587.50Q255 567 255 540Q255 496 230 476Q205 456 146 456L134 456Q89 456 60.50 478.50Q32 501 32 525Q32 545 54 545Q78 545 78 527Q78 515 96.50 507Q115 499 138 499L150 499Q190 499 201.50 509Q213 519 213 541Q213 562 184.50 579Q156 596 126 596Q114 596 108.50 603Q103 610 103 618Q103 627 109.50 633Q116 639 126 639Q156 639 184.50 653Q213 667 213 687Q213 701 210 709Q207 717 192.50 723Q178 729 150 729L138 729Z"  horiz-adv-x="295" vert-adv-y="1024"  />

      
      <glyph glyph-name="unib4" unicode="&#xb4;" d="M175 635L79 520Q66 505 54 505Q46 505 37.50 512.50Q29 520 29 530Q29 542 38 553L134 668Q148 683 159 683Q168 683 176 675.50Q184 668 184 657Q184 646 175 635Z"  horiz-adv-x="212" vert-adv-y="1024"  />

      
      <glyph glyph-name="unib5" unicode="&#xb5;" d="M449 228L449 438Q449 473 474 473Q501 473 501 438L501 24Q501-12 476-12Q449-12 449 24L449 58Q390-5 288-5Q186-5 127 58L127-169Q127-205 99-205Q75-205 75-169L75 438Q75 473 100 473Q127 473 127 438L127 228Q127 140 168.50 93.50Q210 47 288 47Q365 47 407 93.50Q449 140 449 228Z"  horiz-adv-x="574" vert-adv-y="1024"  />

      
      <glyph glyph-name="unib6" unicode="&#xb6;" d="M352-12Q325-12 325 20L325 589L294 589L294 20Q294-12 269-12Q242-12 242 20L242 332L205 332Q125 332 80 371.50Q35 411 35 486Q35 575 88.50 608Q142 641 247 641L377 641L377 20Q377-12 352-12Z"  horiz-adv-x="467" vert-adv-y="1024"  />

      
      <glyph glyph-name="unib7" unicode="&#xb7;" d="M121 428Q137 428 154.50 416Q172 404 172 387Q172 370 154.50 358Q137 346 121 346Q104 346 87 358Q70 370 70 387Q70 404 87 416Q104 428 121 428Z"  horiz-adv-x="242" vert-adv-y="1024"  />

      
      <glyph glyph-name="unib8" unicode="&#xb8;" d="M143 10Q143-6 154-18.50Q165-31 177.50-38Q190-45 201-59.50Q212-74 212-94Q212-130 184-152.50Q156-175 116-175Q91-175 64-163Q37-151 37-125Q37-107 52-107Q58-107 81-116Q104-125 118-125Q160-125 160-99Q160-89 149-78.50Q138-68 125.50-59Q113-50 102-32Q91-14 91 10L143 10Z"  horiz-adv-x="242" vert-adv-y="1024"  />

      
      <glyph glyph-name="unib9" unicode="&#xb9;" d="M37 685Q27 673 13 673Q4 673-1.50 679Q-7 685-7 692Q-7 704 5 714L53 764Q66 775 76 775Q84 775 91.50 769.50Q99 764 99 751L99 480Q99 453 77 453Q55 453 55 480L55 703L37 685Z"  horiz-adv-x="154" vert-adv-y="1024"  />

      
      <glyph glyph-name="uniba" unicode="&#xba;" d="M185 285L194 285Q228 285 238.50 293Q249 301 249 333L249 377Q249 409 238.50 417Q228 425 194 425L185 425Q151 425 141 417Q131 409 131 377L131 333Q131 301 141 293Q151 285 185 285M185 244Q131 244 110.50 262.50Q90 281 90 333L90 377Q90 429 111 447.50Q132 466 185 466L194 466Q248 466 269 447.50Q290 429 290 377L290 333Q290 281 269 262.50Q248 244 194 244L185 244M65 182Q65 204 91 204L287 204Q315 204 315 180Q315 159 287 159L91 159Q65 159 65 182Z"  horiz-adv-x="380" vert-adv-y="1024"  />

      
      <glyph glyph-name="unibb" unicode="&#xbb;" d="M449 358Q467 342 467 333Q467 320 449 306L267 137Q260 130 244 130Q224 130 224 150Q224 167 238 182L393 333L238 483Q224 498 224 515Q224 535 244 535Q259 535 267 527L449 358M295 358Q313 342 313 333Q313 320 295 306L113 137Q106 130 90 130Q70 130 70 150Q70 167 84 182L239 333L84 483Q70 498 70 515Q70 535 90 535Q105 535 113 527L295 358Z"  horiz-adv-x="503" vert-adv-y="1024"  />

      
      <glyph glyph-name="unibc" unicode="&#xbc;" d="M133 551Q123 539 109 539Q100 539 94.50 545Q89 551 89 558Q89 570 101 580L149 630Q162 641 172 641Q180 641 187.50 635.50Q195 630 195 617L195 346Q195 319 173 319Q151 319 151 346L151 569L133 551M509 519Q509 507 497 495L88 85Q75 73 63 73Q43 73 43 93Q43 105 55 118L465 527Q477 539 489 539Q509 539 509 519M470 95L470 18Q470-9 448-9Q426-9 426 18L426 95L294 95L294 147L416 310L470 310L470 138L514 138Q540 138 540 117Q540 95 514 95L470 95M426 138L426 256L338 138L426 138Z"  horiz-adv-x="584" vert-adv-y="1024"  />

      
      <glyph glyph-name="unibd" unicode="&#xbd;" d="M506 519Q506 507 494 495L85 85Q72 73 60 73Q40 73 40 93Q40 105 52 118L462 527Q474 539 486 539Q506 539 506 519M559 15Q559 9 550.50 1.50Q542-6 532-6L324-6L324 21Q324 57 344 85.50Q364 114 392 131Q420 148 448 162Q476 176 496 190.50Q516 205 516 220Q516 252 500 259.50Q484 267 434 267L408 267Q370 267 370 241Q370 231 363 224.50Q356 218 347 218Q339 218 331.50 224.50Q324 231 324 241Q324 271 348 290.50Q372 310 404 310L434 310Q465 310 484 307.50Q503 305 522 296.50Q541 288 550 269Q559 250 559 220Q559 192 530.50 166.50Q502 141 468 125.50Q434 110 404 86.50Q374 63 371 37L532 37Q543 36 551 29.50Q559 23 559 15M141 551Q131 539 117 539Q108 539 102.50 545Q97 551 97 558Q97 570 109 580L157 630Q170 641 180 641Q188 641 195.50 635.50Q203 630 203 617L203 346Q203 319 181 319Q159 319 159 346L159 569L141 551Z"  horiz-adv-x="612" vert-adv-y="1024"  />

      
      <glyph glyph-name="unibe" unicode="&#xbe;" d="M516 95L516 18Q516-9 494-9Q472-9 472 18L472 95L340 95L340 147L462 310L516 310L516 138L560 138Q586 138 586 117Q586 95 560 95L516 95M472 138L472 256L384 138L472 138M560 519Q560 507 548 495L139 85Q126 73 114 73Q94 73 94 93Q94 105 106 118L516 527Q528 539 540 539Q560 539 560 519M169 598Q146 598 127.50 590Q109 582 109 570Q109 552 85 552Q63 552 63 572Q63 596 91.50 618.50Q120 641 165 641L177 641Q236 641 261 620.50Q286 600 286 553Q286 512 227 487Q250 477 268 456.50Q286 436 286 409Q286 365 261 345Q236 325 177 325L165 325Q120 325 91.50 347.50Q63 370 63 394Q63 414 85 414Q109 414 109 396Q109 384 127.50 376Q146 368 169 368L181 368Q221 368 232.50 378Q244 388 244 410Q244 431 215.50 448Q187 465 157 465Q145 465 139.50 472Q134 479 134 487Q134 496 140.50 502Q147 508 157 508Q187 508 215.50 522Q244 536 244 556Q244 570 241 578Q238 586 223.50 592Q209 598 181 598L169 598Z"  horiz-adv-x="631" vert-adv-y="1024"  />

      
      <glyph glyph-name="unibf" unicode="&#xbf;" d="M282 409Q265 409 247.50 421Q230 433 230 450Q230 467 247 479Q264 491 282 491Q298 491 315.50 479Q333 467 333 450Q333 433 315.50 421Q298 409 282 409M255 285Q255 318 282 318Q307 318 307 285L307 141L150 98Q124 91 107 62.50Q90 34 90-5Q90-47 113.50-82.50Q137-118 187-118L281-118Q329-118 354.50-114.50Q380-111 402-99Q424-87 432.50-61Q441-35 441 8Q441 41 467 41Q494 41 494 8Q494-48 479.50-84.50Q465-121 434.50-139Q404-157 369-163.50Q334-170 281-170L205-170Q117-170 77.50-121.50Q38-73 38-5Q38 62 67 99Q96 136 166 155L255 180L255 285Z"  horiz-adv-x="529" vert-adv-y="1024"  />

      
      <glyph glyph-name="unic0" unicode="&#xc0;" d="M203 819Q215 819 227 806L297 737Q309 723 309 712Q309 704 302 696Q295 688 284 688Q271 688 259 701L190 769Q177 784 177 794Q177 802 185 810.50Q193 819 203 819M316 636L543 25Q546 16 546 9Q546-4 537-10Q528-16 520-16Q503-16 493 7L422 199L148 199L77 7Q67-16 50-16Q42-16 33-10Q24-4 24 9Q24 16 27 25L254 636L316 636M284 560L168 251L402 251L284 560Z"  horiz-adv-x="570" vert-adv-y="1024"  />

      
      <glyph glyph-name="unic1" unicode="&#xc1;" d="M361 770L291 701Q279 688 267 688Q257 688 249 695.50Q241 703 241 712Q241 723 254 738L323 806Q335 819 348 819Q359 819 366 810.50Q373 802 373 794Q373 784 361 770M316 636L543 25Q546 16 546 9Q546-4 537-10Q528-16 520-16Q503-16 493 7L422 199L148 199L77 7Q67-16 50-16Q42-16 33-10Q24-4 24 9Q24 16 27 25L254 636L316 636M284 560L168 251L402 251L284 560Z"  horiz-adv-x="570" vert-adv-y="1024"  />

      
      <glyph glyph-name="unic2" unicode="&#xc2;" d="M150 687L255 819L314 819L421 687Q427 679 427 669Q427 646 404 646Q399 646 394.50 648Q390 650 388.50 651.50Q387 653 382 659Q377 665 376 666L285 762L195 666Q193 664 190 660Q187 656 185 654.50Q183 653 180.50 650.50Q178 648 174.50 647Q171 646 167 646Q144 646 144 669Q144 679 150 687M316 636L543 25Q546 16 546 9Q546-4 537-10Q528-16 520-16Q503-16 493 7L422 199L148 199L77 7Q67-16 50-16Q42-16 33-10Q24-4 24 9Q24 16 27 25L254 636L316 636M284 560L168 251L402 251L284 560Z"  horiz-adv-x="570" vert-adv-y="1024"  />

      
      <glyph glyph-name="unic3" unicode="&#xc3;" d="M316 636L543 25Q546 16 546 9Q546-4 537-10Q528-16 520-16Q503-16 493 7L422 199L148 199L77 7Q67-16 50-16Q42-16 33-10Q24-4 24 9Q24 16 27 25L254 636L316 636M284 560L168 251L402 251L284 560Z"  horiz-adv-x="570" vert-adv-y="1024"  />

      
      <glyph glyph-name="unic4" unicode="&#xc4;" d="M212 784Q228 784 245.50 772Q263 760 263 743Q263 726 245.50 714Q228 702 212 702Q195 702 178 714Q161 726 161 743Q161 760 178 772Q195 784 212 784M358 784Q374 784 391.50 772Q409 760 409 743Q409 726 391.50 714Q374 702 358 702Q341 702 324 714Q307 726 307 743Q307 760 324 772Q341 784 358 784M316 636L543 25Q546 16 546 9Q546-4 537-10Q528-16 520-16Q503-16 493 7L422 199L148 199L77 7Q67-16 50-16Q42-16 33-10Q24-4 24 9Q24 16 27 25L254 636L316 636M284 560L168 251L402 251L284 560Z"  horiz-adv-x="570" vert-adv-y="1024"  />

      
      <glyph glyph-name="unic5" unicode="&#xc5;" d="M241 738Q241 720 254 707Q267 694 285 694Q302 694 315.50 707Q329 720 329 738Q329 756 315.50 769Q302 782 285 782Q267 782 254 768.50Q241 755 241 738M227.50 795.50Q227.50 795.50 239.25 807.25Q251 819 285 819Q319 819 342.50 795.50Q366 772 366 738Q366 704 342.50 680.50Q319 657 285 657Q251 657 227.50 680.50Q204 704 204 738Q204 772 227.50 795.50M316 636L543 25Q546 16 546 9Q546-4 537-10Q528-16 520-16Q503-16 493 7L422 199L148 199L77 7Q67-16 50-16Q42-16 33-10Q24-4 24 9Q24 16 27 25L254 636L316 636M284 560L168 251L402 251L284 560Z"  horiz-adv-x="570" vert-adv-y="1024"  />

      
      <glyph glyph-name="unic6" unicode="&#xc6;" d="M452 332L452 52L785 52Q819 52 819 24Q819 0 785 0L424 0Q400 0 400 36L400 199L185 199L62 7Q47-16 29-16Q9-16 9 2Q9 12 17 25L405 631Q412 641 424 641L785 641Q819 641 819 613Q819 589 785 589L452 589L452 384L666 384Q702 384 702 356Q702 332 666 332L452 332M400 251L400 533L219 251L400 251Z"  horiz-adv-x="867" vert-adv-y="1024"  />

      
      <glyph glyph-name="unic7" unicode="&#xc7;" d="M283 0Q173 1 122 37.50Q71 74 71 180L71 466Q71 574 124 610Q177 646 288 646L435 646Q467 646 488.50 636.50Q510 627 519.50 609.50Q529 592 532 575Q535 558 535 534Q535 499 509 499Q483 499 483 532Q483 567 471 580.50Q459 594 428 594L288 594Q240 594 213 590.50Q186 587 163 574Q140 561 131.50 535Q123 509 123 466L123 180Q123 97 159 74.50Q195 52 294 52L428 52Q460 52 471.50 66Q483 80 483 114Q483 147 509 147Q535 147 535 111Q535 88 532 71Q529 54 519.50 36.50Q510 19 488.50 9.50Q467 0 435 0L336 0Q339-13 350.50-23.50Q362-34 373.50-40.50Q385-47 394.50-61Q404-75 404-94Q404-130 376-152.50Q348-175 308-175Q283-175 256-163Q229-151 229-125Q229-107 244-107Q250-107 273-116Q296-125 310-125Q352-125 352-99Q352-88 336-75.50Q320-63 303-44.50Q286-26 283 0Z"  horiz-adv-x="590" vert-adv-y="1024"  />

      
      <glyph glyph-name="unic8" unicode="&#xc8;" d="M230 819Q242 819 254 806L324 737Q336 723 336 712Q336 704 329 696Q322 688 311 688Q298 688 286 701L217 769Q204 784 204 794Q204 802 212 810.50Q220 819 230 819M136 332L136 52L514 52Q548 52 548 24Q548 0 514 0L108 0Q84 0 84 36L84 600Q84 636 108 636L514 636Q548 636 548 608Q548 584 514 584L136 584L136 384L395 384Q431 384 431 356Q431 332 395 332L136 332Z"  horiz-adv-x="598" vert-adv-y="1024"  />

      
      <glyph glyph-name="unic9" unicode="&#xc9;" d="M375 770L305 701Q293 688 281 688Q271 688 263 695.50Q255 703 255 712Q255 723 268 738L337 806Q349 819 362 819Q373 819 380 810.50Q387 802 387 794Q387 784 375 770M136 332L136 52L514 52Q548 52 548 24Q548 0 514 0L108 0Q84 0 84 36L84 600Q84 636 108 636L514 636Q548 636 548 608Q548 584 514 584L136 584L136 384L395 384Q431 384 431 356Q431 332 395 332L136 332Z"  horiz-adv-x="598" vert-adv-y="1024"  />

      
      <glyph glyph-name="unica" unicode="&#xca;" d="M176 687L281 819L340 819L447 687Q453 679 453 669Q453 646 430 646Q425 646 420.50 648Q416 650 414.50 651.50Q413 653 408 659Q403 665 402 666L311 762L221 666Q219 664 216 660Q213 656 211 654.50Q209 653 206.50 650.50Q204 648 200.50 647Q197 646 193 646Q170 646 170 669Q170 679 176 687M136 332L136 52L514 52Q548 52 548 24Q548 0 514 0L108 0Q84 0 84 36L84 600Q84 636 108 636L514 636Q548 636 548 608Q548 584 514 584L136 584L136 384L395 384Q431 384 431 356Q431 332 395 332L136 332Z"  horiz-adv-x="598" vert-adv-y="1024"  />

      
      <glyph glyph-name="unicb" unicode="&#xcb;" d="M239 784Q255 784 272.50 772Q290 760 290 743Q290 726 272.50 714Q255 702 239 702Q222 702 205 714Q188 726 188 743Q188 760 205 772Q222 784 239 784M385 784Q401 784 418.50 772Q436 760 436 743Q436 726 418.50 714Q401 702 385 702Q368 702 351 714Q334 726 334 743Q334 760 351 772Q368 784 385 784M136 332L136 52L514 52Q548 52 548 24Q548 0 514 0L108 0Q84 0 84 36L84 600Q84 636 108 636L514 636Q548 636 548 608Q548 584 514 584L136 584L136 384L395 384Q431 384 431 356Q431 332 395 332L136 332Z"  horiz-adv-x="598" vert-adv-y="1024"  />

      
      <glyph glyph-name="unicc" unicode="&#xcc;" d="M30 819Q42 819 54 806L124 737Q136 723 136 712Q136 704 129 696Q122 688 111 688Q98 688 86 701L17 769Q4 784 4 794Q4 802 12 810.50Q20 819 30 819M136 25Q136-7 109-7Q84-7 84 25L84 610Q84 643 110 643Q136 643 136 610L136 25Z"  horiz-adv-x="220" vert-adv-y="1024"  />

      
      <glyph glyph-name="unicd" unicode="&#xcd;" d="M205 770L135 701Q123 688 111 688Q101 688 93 695.50Q85 703 85 712Q85 723 98 738L167 806Q179 819 192 819Q203 819 210 810.50Q217 802 217 794Q217 784 205 770M136 25Q136-7 109-7Q84-7 84 25L84 610Q84 643 110 643Q136 643 136 610L136 25Z"  horiz-adv-x="220" vert-adv-y="1024"  />

      
      <glyph glyph-name="unice" unicode="&#xce;" d="M-24 687L81 819L140 819L247 687Q253 679 253 669Q253 646 230 646Q225 646 220.50 648Q216 650 214.50 651.50Q213 653 208 659Q203 665 202 666L111 762L21 666Q19 664 16 660Q13 656 11 654.50Q9 653 6.50 650.50Q4 648 0.50 647Q-3 646-7 646Q-30 646-30 669Q-30 679-24 687M136 25Q136-7 109-7Q84-7 84 25L84 610Q84 643 110 643Q136 643 136 610L136 25Z"  horiz-adv-x="220" vert-adv-y="1024"  />

      
      <glyph glyph-name="unicf" unicode="&#xcf;" d="M38 784Q54 784 71.50 772Q89 760 89 743Q89 726 71.50 714Q54 702 38 702Q21 702 4 714Q-13 726-13 743Q-13 760 4 772Q21 784 38 784M184 784Q200 784 217.50 772Q235 760 235 743Q235 726 217.50 714Q200 702 184 702Q167 702 150 714Q133 726 133 743Q133 760 150 772Q167 784 184 784M136 25Q136-7 109-7Q84-7 84 25L84 610Q84 643 110 643Q136 643 136 610L136 25Z"  horiz-adv-x="220" vert-adv-y="1024"  />

      
      <glyph glyph-name="unid0" unicode="&#xd0;" d="M496 180L496 456Q496 538 461 561Q426 584 332 584L136 584L136 351L240 351Q274 351 274 324Q274 298 240 298L136 298L136 52L326 52Q424 52 460 74.50Q496 97 496 180M548 456L548 180Q548 72 494.50 36Q441 0 326 0L108 0Q84 0 84 36L84 298Q52 298 52 326Q52 351 84 351L84 600Q84 636 108 636L332 636Q386 636 422 629.50Q458 623 488.50 604Q519 585 533.50 548.50Q548 512 548 456Z"  horiz-adv-x="620" vert-adv-y="1024"  />

      
      <glyph glyph-name="unid1" unicode="&#xd1;" d="M523-7Q509-7 503 0L136 543L136 26Q136-7 110-7Q84-7 84 27L84 608Q84 643 108 643Q126 643 138 624L496 96L496 607Q496 643 521 643Q548 643 548 608L548 27Q548-7 523-7Z"  horiz-adv-x="632" vert-adv-y="1024"  />

      
      <glyph glyph-name="unid2" unicode="&#xd2;" d="M216 819Q228 819 240 806L310 737Q322 723 322 712Q322 704 315 696Q308 688 297 688Q284 688 272 701L203 769Q190 784 190 794Q190 802 198 810.50Q206 819 216 819M464 54.50Q464 54.50 431.50 22.75Q399-9 297-9Q195-9 130 54Q65 117 65 228L65 408Q65 519 130 582Q195 645 297 645Q399 645 464 581.50Q529 518 529 408L529 228Q529 118 464 54.50M430 544Q430 544 406.50 568.50Q383 593 297 593Q211 593 164 544Q117 495 117 407L117 229Q117 141 164 92Q211 43 297 43Q383 43 430 92Q477 141 477 229L477 407Q477 495 430 544Z"  horiz-adv-x="594" vert-adv-y="1024"  />

      
      <glyph glyph-name="unid3" unicode="&#xd3;" d="M391 770L321 701Q309 688 297 688Q287 688 279 695.50Q271 703 271 712Q271 723 284 738L353 806Q365 819 378 819Q389 819 396 810.50Q403 802 403 794Q403 784 391 770M464 54.50Q464 54.50 431.50 22.75Q399-9 297-9Q195-9 130 54Q65 117 65 228L65 408Q65 519 130 582Q195 645 297 645Q399 645 464 581.50Q529 518 529 408L529 228Q529 118 464 54.50M430 544Q430 544 406.50 568.50Q383 593 297 593Q211 593 164 544Q117 495 117 407L117 229Q117 141 164 92Q211 43 297 43Q383 43 430 92Q477 141 477 229L477 407Q477 495 430 544Z"  horiz-adv-x="594" vert-adv-y="1024"  />

      
      <glyph glyph-name="unid4" unicode="&#xd4;" d="M162 687L267 819L326 819L433 687Q439 679 439 669Q439 646 416 646Q411 646 406.50 648Q402 650 400.50 651.50Q399 653 394 659Q389 665 388 666L297 762L207 666Q205 664 202 660Q199 656 197 654.50Q195 653 192.50 650.50Q190 648 186.50 647Q183 646 179 646Q156 646 156 669Q156 679 162 687M464 54.50Q464 54.50 431.50 22.75Q399-9 297-9Q195-9 130 54Q65 117 65 228L65 408Q65 519 130 582Q195 645 297 645Q399 645 464 581.50Q529 518 529 408L529 228Q529 118 464 54.50M430 544Q430 544 406.50 568.50Q383 593 297 593Q211 593 164 544Q117 495 117 407L117 229Q117 141 164 92Q211 43 297 43Q383 43 430 92Q477 141 477 229L477 407Q477 495 430 544Z"  horiz-adv-x="594" vert-adv-y="1024"  />

      
      <glyph glyph-name="unid5" unicode="&#xd5;" d="M464 54.50Q464 54.50 431.50 22.75Q399-9 297-9Q195-9 130 54Q65 117 65 228L65 408Q65 519 130 582Q195 645 297 645Q399 645 464 581.50Q529 518 529 408L529 228Q529 118 464 54.50M430 544Q430 544 406.50 568.50Q383 593 297 593Q211 593 164 544Q117 495 117 407L117 229Q117 141 164 92Q211 43 297 43Q383 43 430 92Q477 141 477 229L477 407Q477 495 430 544Z"  horiz-adv-x="594" vert-adv-y="1024"  />

      
      <glyph glyph-name="unid6" unicode="&#xd6;" d="M225 784Q241 784 258.50 772Q276 760 276 743Q276 726 258.50 714Q241 702 225 702Q208 702 191 714Q174 726 174 743Q174 760 191 772Q208 784 225 784M371 784Q387 784 404.50 772Q422 760 422 743Q422 726 404.50 714Q387 702 371 702Q354 702 337 714Q320 726 320 743Q320 760 337 772Q354 784 371 784M464 54.50Q464 54.50 431.50 22.75Q399-9 297-9Q195-9 130 54Q65 117 65 228L65 408Q65 519 130 582Q195 645 297 645Q399 645 464 581.50Q529 518 529 408L529 228Q529 118 464 54.50M430 544Q430 544 406.50 568.50Q383 593 297 593Q211 593 164 544Q117 495 117 407L117 229Q117 141 164 92Q211 43 297 43Q383 43 430 92Q477 141 477 229L477 407Q477 495 430 544Z"  horiz-adv-x="594" vert-adv-y="1024"  />

      
      <glyph glyph-name="unid7" unicode="&#xd7;" d="M71 382Q71 391 78 398.50Q85 406 95 406Q107 406 119 394L246 266L374 393Q386 405 398 405Q407 405 414.50 398Q422 391 422 381Q422 369 410 357L282 230L409 102Q422 91 422 78Q422 69 414.50 61.50Q407 54 397 54Q385 54 373 66L246 194L118 67Q107 54 94 54Q85 54 77.50 61.50Q70 69 70 79Q70 91 82 103L210 230L83 358Q71 370 71 382Z"  horiz-adv-x="493" vert-adv-y="1024"  />

      
      <glyph glyph-name="unid8" unicode="&#xd8;" d="M297 593Q211 593 164 543Q117 493 117 404L117 222Q117 152 145 108L415 558Q368 593 297 593M475 638Q482 638 491.50 632Q501 626 501 613Q501 605 495 593L478 566Q529 504 529 408L529 228Q529 118 464 54.50Q399-9 297-9Q212-9 156 33L146 17Q136-2 120-2Q113-2 104 4Q95 10 95 22Q95 31 101 43L116 68Q65 130 65 228L65 408Q65 519 130 582Q195 645 297 645Q384 645 440 602L450 619Q459 638 475 638M477 414Q477 482 450 526L180 77Q226 43 297 43Q383 43 430 92.50Q477 142 477 232L477 414Z"  horiz-adv-x="594" vert-adv-y="1024"  />

      
      <glyph glyph-name="unid9" unicode="&#xd9;" d="M229 809Q241 809 254 794L350 679Q359 668 359 656Q359 645 351 638Q343 631 334 631Q323 631 309 646L213 761Q204 772 204 783Q204 794 212 801.50Q220 809 229 809M490 611Q490 643 517 643Q542 643 542 610L542 228Q542 118 477 54.50Q412-9 310-9Q208-9 143 54Q78 117 78 228L78 610Q78 643 104 643Q130 643 130 611L130 229Q130 141 177 92Q224 43 310 43Q396 43 443 92Q490 141 490 229L490 611Z"  horiz-adv-x="620" vert-adv-y="1024"  />

      
      <glyph glyph-name="unida" unicode="&#xda;" d="M431 761L335 646Q322 631 310 631Q302 631 293.50 638.50Q285 646 285 656Q285 668 294 679L390 794Q404 809 415 809Q424 809 432 801.50Q440 794 440 783Q440 772 431 761M490 611Q490 643 517 643Q542 643 542 610L542 228Q542 118 477 54.50Q412-9 310-9Q208-9 143 54Q78 117 78 228L78 610Q78 643 104 643Q130 643 130 611L130 229Q130 141 177 92Q224 43 310 43Q396 43 443 92Q490 141 490 229L490 611Z"  horiz-adv-x="620" vert-adv-y="1024"  />

      
      <glyph glyph-name="unidb" unicode="&#xdb;" d="M175 687L280 819L339 819L446 687Q452 679 452 669Q452 646 429 646Q424 646 419.50 648Q415 650 413.50 651.50Q412 653 407 659Q402 665 401 666L310 762L220 666Q218 664 215 660Q212 656 210 654.50Q208 653 205.50 650.50Q203 648 199.50 647Q196 646 192 646Q169 646 169 669Q169 679 175 687M490 611Q490 643 517 643Q542 643 542 610L542 228Q542 118 477 54.50Q412-9 310-9Q208-9 143 54Q78 117 78 228L78 610Q78 643 104 643Q130 643 130 611L130 229Q130 141 177 92Q224 43 310 43Q396 43 443 92Q490 141 490 229L490 611Z"  horiz-adv-x="620" vert-adv-y="1024"  />

      
      <glyph glyph-name="unidc" unicode="&#xdc;" d="M238 784Q254 784 271.50 772Q289 760 289 743Q289 726 271.50 714Q254 702 238 702Q221 702 204 714Q187 726 187 743Q187 760 204 772Q221 784 238 784M384 784Q400 784 417.50 772Q435 760 435 743Q435 726 417.50 714Q400 702 384 702Q367 702 350 714Q333 726 333 743Q333 760 350 772Q367 784 384 784M490 611Q490 643 517 643Q542 643 542 610L542 228Q542 118 477 54.50Q412-9 310-9Q208-9 143 54Q78 117 78 228L78 610Q78 643 104 643Q130 643 130 611L130 229Q130 141 177 92Q224 43 310 43Q396 43 443 92Q490 141 490 229L490 611Z"  horiz-adv-x="620" vert-adv-y="1024"  />

      
      <glyph glyph-name="unidd" unicode="&#xdd;" d="M381 761L285 646Q272 631 260 631Q252 631 243.50 638.50Q235 646 235 656Q235 668 244 679L340 794Q354 809 365 809Q374 809 382 801.50Q390 794 390 783Q390 772 381 761M234 308L25 597Q17 609 17 618Q17 629 25 636Q33 643 42 643Q53 643 67 625L260 358L452 625Q465 643 478 643Q486 643 494.50 635.50Q503 628 503 618Q503 609 495 597L287 308L287 24Q287-7 260-7Q234-7 234 24L234 308Z"  horiz-adv-x="521" vert-adv-y="1024"  />

      
      <glyph glyph-name="unide" unicode="&#xde;" d="M136 466L311 466Q393 466 439 427Q485 388 485 313Q485 238 438.50 198.50Q392 159 310 159L136 159L136 25Q136-7 109-7Q84-7 84 25L84 573Q84 606 110 606Q136 606 136 573L136 466M266 414L136 414L136 208L265 208Q359 208 395.50 227.50Q432 247 432 311Q432 373 395.50 393.50Q359 414 266 414Z"  horiz-adv-x="520" vert-adv-y="1024"  />

      
      <glyph glyph-name="unidf" unicode="&#xdf;" d="M163 353L163 404Q207 404 237.50 415.50Q268 427 281.50 446Q295 465 300.50 483Q306 501 306 522Q306 550 284.50 567Q263 584 225 584Q167 584 141 561.50Q115 539 115 461L115 29Q115-7 87-7Q63-7 63 29L63 410Q32 412 32 437Q32 459 63 461Q64 515 78 551.50Q92 588 117 605.50Q142 623 167 629.50Q192 636 225 636Q289 636 323.50 601.50Q358 567 358 520Q358 431 284 383Q426 342 426 196Q426 79 381.50 29.50Q337-20 275-20Q231-20 191.50 9Q152 38 152 91Q152 127 180 127Q208 127 208 93Q208 60 231 46Q254 32 284 32Q320 32 347 67.50Q374 103 374 197Q374 223 365 248Q356 273 334.50 298Q313 323 269 338Q225 353 163 353Z"  horiz-adv-x="464" vert-adv-y="1024"  />

      
      <glyph glyph-name="unie0" unicode="&#xe0;" d="M190 680Q202 680 215 665L311 550Q320 539 320 527Q320 516 312 509Q304 502 295 502Q284 502 270 517L174 632Q165 643 165 654Q165 665 173 672.50Q181 680 190 680M283 243Q232 243 204.50 239.50Q177 236 153 223.50Q129 211 120.50 186Q112 161 112 118Q112 92 129 72Q146 52 167 52L260 52Q344 52 387 97.50Q430 143 430 228L430 243L283 243M283 295L430 295L430 352Q430 383 418.50 396Q407 409 375 409L234 409Q112 409 112 349Q112 314 85 314Q60 314 60 349Q60 407 106 434Q152 461 227 461L382 461Q440 461 461 433Q482 405 482 335L482 27Q482-7 456-7Q430-7 430 28L430 63Q373 0 260 0L167 0Q120 0 90 33.50Q60 67 60 123Q60 224 114.50 259.50Q169 295 283 295Z"  horiz-adv-x="554" vert-adv-y="1024"  />

      
      <glyph glyph-name="unie1" unicode="&#xe1;" d="M392 635L296 520Q283 505 271 505Q263 505 254.50 512.50Q246 520 246 530Q246 542 255 553L351 668Q365 683 376 683Q385 683 393 675.50Q401 668 401 657Q401 646 392 635M283 243Q232 243 204.50 239.50Q177 236 153 223.50Q129 211 120.50 186Q112 161 112 118Q112 92 129 72Q146 52 167 52L260 52Q344 52 387 97.50Q430 143 430 228L430 243L283 243M283 295L430 295L430 352Q430 383 418.50 396Q407 409 375 409L234 409Q112 409 112 349Q112 314 85 314Q60 314 60 349Q60 407 106 434Q152 461 227 461L382 461Q440 461 461 433Q482 405 482 335L482 27Q482-7 456-7Q430-7 430 28L430 63Q373 0 260 0L167 0Q120 0 90 33.50Q60 67 60 123Q60 224 114.50 259.50Q169 295 283 295Z"  horiz-adv-x="554" vert-adv-y="1024"  />

      
      <glyph glyph-name="unie2" unicode="&#xe2;" d="M136 558L241 690L300 690L407 558Q413 550 413 540Q413 517 390 517Q385 517 380.50 519Q376 521 374.50 522.50Q373 524 368 530Q363 536 362 537L271 633L181 537Q179 535 176 531Q173 527 171 525.50Q169 524 166.50 521.50Q164 519 160.50 518Q157 517 153 517Q130 517 130 540Q130 550 136 558M283 243Q232 243 204.50 239.50Q177 236 153 223.50Q129 211 120.50 186Q112 161 112 118Q112 92 129 72Q146 52 167 52L260 52Q344 52 387 97.50Q430 143 430 228L430 243L283 243M283 295L430 295L430 352Q430 383 418.50 396Q407 409 375 409L234 409Q112 409 112 349Q112 314 85 314Q60 314 60 349Q60 407 106 434Q152 461 227 461L382 461Q440 461 461 433Q482 405 482 335L482 27Q482-7 456-7Q430-7 430 28L430 63Q373 0 260 0L167 0Q120 0 90 33.50Q60 67 60 123Q60 224 114.50 259.50Q169 295 283 295Z"  horiz-adv-x="554" vert-adv-y="1024"  />

      
      <glyph glyph-name="unie3" unicode="&#xe3;" d="M283 243Q232 243 204.50 239.50Q177 236 153 223.50Q129 211 120.50 186Q112 161 112 118Q112 92 129 72Q146 52 167 52L260 52Q344 52 387 97.50Q430 143 430 228L430 243L283 243M283 295L430 295L430 352Q430 383 418.50 396Q407 409 375 409L234 409Q112 409 112 349Q112 314 85 314Q60 314 60 349Q60 407 106 434Q152 461 227 461L382 461Q440 461 461 433Q482 405 482 335L482 27Q482-7 456-7Q430-7 430 28L430 63Q373 0 260 0L167 0Q120 0 90 33.50Q60 67 60 123Q60 224 114.50 259.50Q169 295 283 295Z"  horiz-adv-x="554" vert-adv-y="1024"  />

      
      <glyph glyph-name="unie4" unicode="&#xe4;" d="M198 599Q214 599 231.50 587Q249 575 249 558Q249 541 231.50 529Q214 517 198 517Q181 517 164 529Q147 541 147 558Q147 575 164 587Q181 599 198 599M344 599Q360 599 377.50 587Q395 575 395 558Q395 541 377.50 529Q360 517 344 517Q327 517 310 529Q293 541 293 558Q293 575 310 587Q327 599 344 599M283 243Q232 243 204.50 239.50Q177 236 153 223.50Q129 211 120.50 186Q112 161 112 118Q112 92 129 72Q146 52 167 52L260 52Q344 52 387 97.50Q430 143 430 228L430 243L283 243M283 295L430 295L430 352Q430 383 418.50 396Q407 409 375 409L234 409Q112 409 112 349Q112 314 85 314Q60 314 60 349Q60 407 106 434Q152 461 227 461L382 461Q440 461 461 433Q482 405 482 335L482 27Q482-7 456-7Q430-7 430 28L430 63Q373 0 260 0L167 0Q120 0 90 33.50Q60 67 60 123Q60 224 114.50 259.50Q169 295 283 295Z"  horiz-adv-x="554" vert-adv-y="1024"  />

      
      <glyph glyph-name="unie5" unicode="&#xe5;" d="M228 598Q228 580 241 567Q254 554 272 554Q289 554 302.50 567Q316 580 316 598Q316 616 302.50 629Q289 642 272 642Q254 642 241 628.50Q228 615 228 598M214.50 655.50Q214.50 655.50 226.25 667.25Q238 679 272 679Q306 679 329.50 655.50Q353 632 353 598Q353 564 329.50 540.50Q306 517 272 517Q238 517 214.50 540.50Q191 564 191 598Q191 632 214.50 655.50M283 243Q232 243 204.50 239.50Q177 236 153 223.50Q129 211 120.50 186Q112 161 112 118Q112 92 129 72Q146 52 167 52L260 52Q344 52 387 97.50Q430 143 430 228L430 243L283 243M283 295L430 295L430 352Q430 383 418.50 396Q407 409 375 409L234 409Q112 409 112 349Q112 314 85 314Q60 314 60 349Q60 407 106 434Q152 461 227 461L382 461Q440 461 461 433Q482 405 482 335L482 27Q482-7 456-7Q430-7 430 28L430 63Q373 0 260 0L167 0Q120 0 90 33.50Q60 67 60 123Q60 224 114.50 259.50Q169 295 283 295Z"  horiz-adv-x="554" vert-adv-y="1024"  />

      
      <glyph glyph-name="unie6" unicode="&#xe6;" d="M283 243Q232 243 204.50 239.50Q177 236 153 223.50Q129 211 120.50 186Q112 161 112 118Q112 92 129 72Q146 52 167 52L260 52Q344 52 387 97.50Q430 143 430 228L430 243L283 243M662 409L654 409Q558 409 521 388Q484 367 483 295L832 295Q831 367 794 388Q757 409 662 409M884 285L884 243L483 243L483 177Q483 134 491.50 109Q500 84 524 71.50Q548 59 575.50 55.50Q603 52 654 52L777 52Q809 52 820.50 66Q832 80 832 114Q832 147 858 147Q884 147 884 111Q884 88 881 71Q878 54 868.50 36.50Q859 19 837.50 9.50Q816 0 784 0L654 0Q571 0 521.50 16.50Q472 33 449 78Q422 42 366 21Q310 0 260 0L167 0Q120 0 90 33.50Q60 67 60 123Q60 224 114.50 259.50Q169 295 283 295L430 295L430 352Q430 383 418.50 396Q407 409 375 409L234 409Q112 409 112 349Q112 314 85 314Q60 314 60 349Q60 407 106 434Q152 461 227 461L382 461Q453 461 472 414Q518 461 654 461L662 461Q777 461 830.50 425.50Q884 390 884 285Z"  horiz-adv-x="944" vert-adv-y="1024"  />

      
      <glyph glyph-name="unie7" unicode="&#xe7;" d="M268 0Q162 2 112 38.50Q62 75 62 176L62 285Q62 390 116 425.50Q170 461 285 461L426 461Q458 461 479.50 451.50Q501 442 510.50 424Q520 406 523 389Q526 372 526 349Q526 314 500 314Q474 314 474 347Q474 382 462 395.50Q450 409 419 409L285 409Q234 409 206.50 405.50Q179 402 155 389.50Q131 377 122.50 352Q114 327 114 284L114 177Q114 134 122.50 109Q131 84 155 71.50Q179 59 206.50 55.50Q234 52 285 52L419 52Q451 52 462.50 66Q474 80 474 114Q474 147 500 147Q526 147 526 111Q526 88 523 71Q520 54 510.50 36.50Q501 19 479.50 9.50Q458 0 426 0L321 0Q324-13 335.50-23.50Q347-34 358.50-40.50Q370-47 379.50-61Q389-75 389-94Q389-130 361-152.50Q333-175 293-175Q268-175 241-163Q214-151 214-125Q214-107 229-107Q235-107 258-116Q281-125 295-125Q337-125 337-99Q337-88 321-75.50Q305-63 288-44.50Q271-26 268 0Z"  horiz-adv-x="584" vert-adv-y="1024"  />

      
      <glyph glyph-name="unie8" unicode="&#xe8;" d="M216 683Q228 683 241 668L337 553Q346 542 346 530Q346 519 338 512Q330 505 321 505Q310 505 296 520L200 635Q191 646 191 657Q191 668 199 675.50Q207 683 216 683M536 285L536 245L114 245L114 177Q114 134 122.50 109Q131 84 155 71.50Q179 59 206.50 55.50Q234 52 285 52L419 52Q451 52 462.50 66Q474 80 474 114Q474 147 500 147Q526 147 526 111Q526 88 523 71Q520 54 510.50 36.50Q501 19 479.50 9.50Q458 0 426 0L285 0Q170 0 116 35.50Q62 71 62 176L62 285Q62 390 116 425.50Q170 461 285 461L314 461Q429 461 482.50 425.50Q536 390 536 285M314 409L285 409Q188 409 151.50 388.50Q115 368 114 297L484 297Q483 368 446.50 388.50Q410 409 314 409Z"  horiz-adv-x="592" vert-adv-y="1024"  />

      
      <glyph glyph-name="unie9" unicode="&#xe9;" d="M421 635L325 520Q312 505 300 505Q292 505 283.50 512.50Q275 520 275 530Q275 542 284 553L380 668Q394 683 405 683Q414 683 422 675.50Q430 668 430 657Q430 646 421 635M536 285L536 245L114 245L114 177Q114 134 122.50 109Q131 84 155 71.50Q179 59 206.50 55.50Q234 52 285 52L419 52Q451 52 462.50 66Q474 80 474 114Q474 147 500 147Q526 147 526 111Q526 88 523 71Q520 54 510.50 36.50Q501 19 479.50 9.50Q458 0 426 0L285 0Q170 0 116 35.50Q62 71 62 176L62 285Q62 390 116 425.50Q170 461 285 461L314 461Q429 461 482.50 425.50Q536 390 536 285M314 409L285 409Q188 409 151.50 388.50Q115 368 114 297L484 297Q483 368 446.50 388.50Q410 409 314 409Z"  horiz-adv-x="592" vert-adv-y="1024"  />

      
      <glyph glyph-name="uniea" unicode="&#xea;" d="M164 558L269 690L328 690L435 558Q441 550 441 540Q441 517 418 517Q413 517 408.50 519Q404 521 402.50 522.50Q401 524 396 530Q391 536 390 537L299 633L209 537Q207 535 204 531Q201 527 199 525.50Q197 524 194.50 521.50Q192 519 188.50 518Q185 517 181 517Q158 517 158 540Q158 550 164 558M536 285L536 245L114 245L114 177Q114 134 122.50 109Q131 84 155 71.50Q179 59 206.50 55.50Q234 52 285 52L419 52Q451 52 462.50 66Q474 80 474 114Q474 147 500 147Q526 147 526 111Q526 88 523 71Q520 54 510.50 36.50Q501 19 479.50 9.50Q458 0 426 0L285 0Q170 0 116 35.50Q62 71 62 176L62 285Q62 390 116 425.50Q170 461 285 461L314 461Q429 461 482.50 425.50Q536 390 536 285M314 409L285 409Q188 409 151.50 388.50Q115 368 114 297L484 297Q483 368 446.50 388.50Q410 409 314 409Z"  horiz-adv-x="592" vert-adv-y="1024"  />

      
      <glyph glyph-name="unieb" unicode="&#xeb;" d="M227 599Q243 599 260.50 587Q278 575 278 558Q278 541 260.50 529Q243 517 227 517Q210 517 193 529Q176 541 176 558Q176 575 193 587Q210 599 227 599M373 599Q389 599 406.50 587Q424 575 424 558Q424 541 406.50 529Q389 517 373 517Q356 517 339 529Q322 541 322 558Q322 575 339 587Q356 599 373 599M536 285L536 245L114 245L114 177Q114 134 122.50 109Q131 84 155 71.50Q179 59 206.50 55.50Q234 52 285 52L419 52Q451 52 462.50 66Q474 80 474 114Q474 147 500 147Q526 147 526 111Q526 88 523 71Q520 54 510.50 36.50Q501 19 479.50 9.50Q458 0 426 0L285 0Q170 0 116 35.50Q62 71 62 176L62 285Q62 390 116 425.50Q170 461 285 461L314 461Q429 461 482.50 425.50Q536 390 536 285M314 409L285 409Q188 409 151.50 388.50Q115 368 114 297L484 297Q483 368 446.50 388.50Q410 409 314 409Z"  horiz-adv-x="592" vert-adv-y="1024"  />

      
      <glyph glyph-name="uniec" unicode="&#xec;" d="M-4 683Q8 683 21 668L117 553Q126 542 126 530Q126 519 118 512Q110 505 101 505Q90 505 76 520L-20 635Q-29 646-29 657Q-29 668-21 675.50Q-13 683-4 683M99-12Q74-12 74 20L74 440Q74 473 100 473Q126 473 126 440L126 20Q126-12 99-12Z"  horiz-adv-x="200" vert-adv-y="1024"  />

      
      <glyph glyph-name="unied" unicode="&#xed;" d="M220 635L124 520Q111 505 99 505Q91 505 82.50 512.50Q74 520 74 530Q74 542 83 553L179 668Q193 683 204 683Q213 683 221 675.50Q229 668 229 657Q229 646 220 635M99-12Q74-12 74 20L74 440Q74 473 100 473Q126 473 126 440L126 20Q126-12 99-12Z"  horiz-adv-x="200" vert-adv-y="1024"  />

      
      <glyph glyph-name="uniee" unicode="&#xee;" d="M-35 558L70 690L129 690L236 558Q242 550 242 540Q242 517 219 517Q214 517 209.50 519Q205 521 203.50 522.50Q202 524 197 530Q192 536 191 537L100 633L10 537Q8 535 5 531Q2 527 0 525.50Q-2 524-4.50 521.50Q-7 519-10.50 518Q-14 517-18 517Q-41 517-41 540Q-41 550-35 558M99-12Q74-12 74 20L74 440Q74 473 100 473Q126 473 126 440L126 20Q126-12 99-12Z"  horiz-adv-x="200" vert-adv-y="1024"  />

      
      <glyph glyph-name="unief" unicode="&#xef;" d="M27 606Q43 606 60.50 594Q78 582 78 565Q78 548 60.50 536Q43 524 27 524Q10 524-7 536Q-24 548-24 565Q-24 582-7 594Q10 606 27 606M173 606Q189 606 206.50 594Q224 582 224 565Q224 548 206.50 536Q189 524 173 524Q156 524 139 536Q122 548 122 565Q122 582 139 594Q156 606 173 606M99-12Q74-12 74 20L74 440Q74 473 100 473Q126 473 126 440L126 20Q126-12 99-12Z"  horiz-adv-x="200" vert-adv-y="1024"  />

      
      <glyph glyph-name="unif0" unicode="&#xf0;" d="M153 583Q122 583 122 608Q122 636 153 636Q224 636 288 610L321 642Q335 654 347 654Q356 654 364.50 647Q373 640 373 630Q373 618 360 605L339 585Q511 479 511 222Q511 124 453 54Q395-16 295-16Q185-16 116 47Q47 110 47 220Q47 331 116 393.50Q185 456 295 456Q371 456 421 417Q380 504 299 546L249 499Q237 487 225 487Q216 487 206.50 494.50Q197 502 197 512Q197 522 211 536L245 568Q201 583 153 583M459 221Q459 297 418 350.50Q377 404 295 404Q205 404 152 352.50Q99 301 99 220Q99 139 152 87.50Q205 36 295 36Q375 36 417 94Q459 152 459 221Z"  horiz-adv-x="566" vert-adv-y="1024"  />

      
      <glyph glyph-name="unif1" unicode="&#xf1;" d="M297 409Q212 409 169 363.50Q126 318 126 231L126 27Q126-7 100-7Q74-7 74 27L74 433Q74 468 98 468Q126 468 126 432L126 398Q185 461 297 461L326 461Q441 461 494.50 425.50Q548 390 548 285L548 27Q548-7 523-7Q496-7 496 27L496 284Q496 327 487.50 352Q479 377 455.50 389.50Q432 402 404.50 405.50Q377 409 326 409L297 409Z"  horiz-adv-x="617" vert-adv-y="1024"  />

      
      <glyph glyph-name="unif2" unicode="&#xf2;" d="M218 680Q230 680 243 665L339 550Q348 539 348 527Q348 516 340 509Q332 502 323 502Q312 502 298 517L202 632Q193 643 193 654Q193 665 201 672.50Q209 680 218 680M314 0L285 0Q170 0 116 35.50Q62 71 62 176L62 285Q62 390 116 425.50Q170 461 285 461L314 461Q429 461 482.50 425.50Q536 390 536 285L536 176Q536 71 482.50 35.50Q429 0 314 0M285 52L314 52Q365 52 392.50 55.50Q420 59 443.50 71.50Q467 84 475.50 109Q484 134 484 177L484 284Q484 327 475.50 352Q467 377 443.50 389.50Q420 402 392.50 405.50Q365 409 314 409L285 409Q234 409 206.50 405.50Q179 402 155 389.50Q131 377 122.50 352Q114 327 114 284L114 177Q114 134 122.50 109Q131 84 155 71.50Q179 59 206.50 55.50Q234 52 285 52Z"  horiz-adv-x="598" vert-adv-y="1024"  />

      
      <glyph glyph-name="unif3" unicode="&#xf3;" d="M419 635L323 520Q310 505 298 505Q290 505 281.50 512.50Q273 520 273 530Q273 542 282 553L378 668Q392 683 403 683Q412 683 420 675.50Q428 668 428 657Q428 646 419 635M314 0L285 0Q170 0 116 35.50Q62 71 62 176L62 285Q62 390 116 425.50Q170 461 285 461L314 461Q429 461 482.50 425.50Q536 390 536 285L536 176Q536 71 482.50 35.50Q429 0 314 0M285 52L314 52Q365 52 392.50 55.50Q420 59 443.50 71.50Q467 84 475.50 109Q484 134 484 177L484 284Q484 327 475.50 352Q467 377 443.50 389.50Q420 402 392.50 405.50Q365 409 314 409L285 409Q234 409 206.50 405.50Q179 402 155 389.50Q131 377 122.50 352Q114 327 114 284L114 177Q114 134 122.50 109Q131 84 155 71.50Q179 59 206.50 55.50Q234 52 285 52Z"  horiz-adv-x="598" vert-adv-y="1024"  />

      
      <glyph glyph-name="unif4" unicode="&#xf4;" d="M164 558L269 690L328 690L435 558Q441 550 441 540Q441 517 418 517Q413 517 408.50 519Q404 521 402.50 522.50Q401 524 396 530Q391 536 390 537L299 633L209 537Q207 535 204 531Q201 527 199 525.50Q197 524 194.50 521.50Q192 519 188.50 518Q185 517 181 517Q158 517 158 540Q158 550 164 558M314 0L285 0Q170 0 116 35.50Q62 71 62 176L62 285Q62 390 116 425.50Q170 461 285 461L314 461Q429 461 482.50 425.50Q536 390 536 285L536 176Q536 71 482.50 35.50Q429 0 314 0M285 52L314 52Q365 52 392.50 55.50Q420 59 443.50 71.50Q467 84 475.50 109Q484 134 484 177L484 284Q484 327 475.50 352Q467 377 443.50 389.50Q420 402 392.50 405.50Q365 409 314 409L285 409Q234 409 206.50 405.50Q179 402 155 389.50Q131 377 122.50 352Q114 327 114 284L114 177Q114 134 122.50 109Q131 84 155 71.50Q179 59 206.50 55.50Q234 52 285 52Z"  horiz-adv-x="598" vert-adv-y="1024"  />

      
      <glyph glyph-name="unif5" unicode="&#xf5;" d="M314 0L285 0Q170 0 116 35.50Q62 71 62 176L62 285Q62 390 116 425.50Q170 461 285 461L314 461Q429 461 482.50 425.50Q536 390 536 285L536 176Q536 71 482.50 35.50Q429 0 314 0M285 52L314 52Q365 52 392.50 55.50Q420 59 443.50 71.50Q467 84 475.50 109Q484 134 484 177L484 284Q484 327 475.50 352Q467 377 443.50 389.50Q420 402 392.50 405.50Q365 409 314 409L285 409Q234 409 206.50 405.50Q179 402 155 389.50Q131 377 122.50 352Q114 327 114 284L114 177Q114 134 122.50 109Q131 84 155 71.50Q179 59 206.50 55.50Q234 52 285 52Z"  horiz-adv-x="598" vert-adv-y="1024"  />

      
      <glyph glyph-name="unif6" unicode="&#xf6;" d="M227 599Q243 599 260.50 587Q278 575 278 558Q278 541 260.50 529Q243 517 227 517Q210 517 193 529Q176 541 176 558Q176 575 193 587Q210 599 227 599M373 599Q389 599 406.50 587Q424 575 424 558Q424 541 406.50 529Q389 517 373 517Q356 517 339 529Q322 541 322 558Q322 575 339 587Q356 599 373 599M314 0L285 0Q170 0 116 35.50Q62 71 62 176L62 285Q62 390 116 425.50Q170 461 285 461L314 461Q429 461 482.50 425.50Q536 390 536 285L536 176Q536 71 482.50 35.50Q429 0 314 0M285 52L314 52Q365 52 392.50 55.50Q420 59 443.50 71.50Q467 84 475.50 109Q484 134 484 177L484 284Q484 327 475.50 352Q467 377 443.50 389.50Q420 402 392.50 405.50Q365 409 314 409L285 409Q234 409 206.50 405.50Q179 402 155 389.50Q131 377 122.50 352Q114 327 114 284L114 177Q114 134 122.50 109Q131 84 155 71.50Q179 59 206.50 55.50Q234 52 285 52Z"  horiz-adv-x="598" vert-adv-y="1024"  />

      
      <glyph glyph-name="unif7" unicode="&#xf7;" d="M64 231Q64 257 95 257L340 257Q374 257 374 229Q374 218 364.50 211Q355 204 340 204L95 204Q64 204 64 231M215 169Q231 169 248.50 157Q266 145 266 128Q266 111 248.50 99Q231 87 215 87Q198 87 181 99Q164 111 164 128Q164 145 181 157Q198 169 215 169M215 374Q231 374 248.50 362Q266 350 266 333Q266 316 248.50 304Q231 292 215 292Q198 292 181 304Q164 316 164 333Q164 350 181 362Q198 374 215 374Z"  horiz-adv-x="439" vert-adv-y="1024"  />

      
      <glyph glyph-name="unif8" unicode="&#xf8;" d="M492 469Q502 469 510 462Q518 455 518 444Q518 436 508 421L499 411Q536 369 536 285L536 176Q536 71 482.50 35.50Q429 0 314 0L285 0Q189 0 143 19L132 7Q119-8 107-8Q98-8 89.50-0.50Q81 7 81 17Q81 26 92 40L100 49Q62 92 62 176L62 285Q62 390 116 425.50Q170 461 285 461L314 461Q413 461 457 440L467 454Q479 469 492 469M285 52L314 52Q412 52 448 74.50Q484 97 484 180L484 291Q484 352 465 380L178 61Q211 52 285 52M114 170Q114 109 134 80L421 400Q388 409 314 409L285 409Q186 409 150 386.50Q114 364 114 281L114 170Z"  horiz-adv-x="598" vert-adv-y="1024"  />

      
      <glyph glyph-name="unif9" unicode="&#xf9;" d="M225 680Q237 680 250 665L346 550Q355 539 355 527Q355 516 347 509Q339 502 330 502Q319 502 305 517L209 632Q200 643 200 654Q200 665 208 672.50Q216 680 225 680M321 52Q406 52 449 97.50Q492 143 492 230L492 434Q492 468 518 468Q544 468 544 434L544 28Q544-7 520-7Q492-7 492 29L492 63Q433 0 321 0L292 0Q177 0 123.50 35.50Q70 71 70 176L70 434Q70 468 95 468Q122 468 122 434L122 177Q122 134 130.50 109Q139 84 162.50 71.50Q186 59 213.50 55.50Q241 52 292 52L321 52Z"  horiz-adv-x="618" vert-adv-y="1024"  />

      
      <glyph glyph-name="unifa" unicode="&#xfa;" d="M428 635L332 520Q319 505 307 505Q299 505 290.50 512.50Q282 520 282 530Q282 542 291 553L387 668Q401 683 412 683Q421 683 429 675.50Q437 668 437 657Q437 646 428 635M321 52Q406 52 449 97.50Q492 143 492 230L492 434Q492 468 518 468Q544 468 544 434L544 28Q544-7 520-7Q492-7 492 29L492 63Q433 0 321 0L292 0Q177 0 123.50 35.50Q70 71 70 176L70 434Q70 468 95 468Q122 468 122 434L122 177Q122 134 130.50 109Q139 84 162.50 71.50Q186 59 213.50 55.50Q241 52 292 52L321 52Z"  horiz-adv-x="618" vert-adv-y="1024"  />

      
      <glyph glyph-name="unifb" unicode="&#xfb;" d="M171 558L276 690L335 690L442 558Q448 550 448 540Q448 517 425 517Q420 517 415.50 519Q411 521 409.50 522.50Q408 524 403 530Q398 536 397 537L306 633L216 537Q214 535 211 531Q208 527 206 525.50Q204 524 201.50 521.50Q199 519 195.50 518Q192 517 188 517Q165 517 165 540Q165 550 171 558M321 52Q406 52 449 97.50Q492 143 492 230L492 434Q492 468 518 468Q544 468 544 434L544 28Q544-7 520-7Q492-7 492 29L492 63Q433 0 321 0L292 0Q177 0 123.50 35.50Q70 71 70 176L70 434Q70 468 95 468Q122 468 122 434L122 177Q122 134 130.50 109Q139 84 162.50 71.50Q186 59 213.50 55.50Q241 52 292 52L321 52Z"  horiz-adv-x="618" vert-adv-y="1024"  />

      
      <glyph glyph-name="unifc" unicode="&#xfc;" d="M234 599Q250 599 267.50 587Q285 575 285 558Q285 541 267.50 529Q250 517 234 517Q217 517 200 529Q183 541 183 558Q183 575 200 587Q217 599 234 599M380 599Q396 599 413.50 587Q431 575 431 558Q431 541 413.50 529Q396 517 380 517Q363 517 346 529Q329 541 329 558Q329 575 346 587Q363 599 380 599M321 52Q406 52 449 97.50Q492 143 492 230L492 434Q492 468 518 468Q544 468 544 434L544 28Q544-7 520-7Q492-7 492 29L492 63Q433 0 321 0L292 0Q177 0 123.50 35.50Q70 71 70 176L70 434Q70 468 95 468Q122 468 122 434L122 177Q122 134 130.50 109Q139 84 162.50 71.50Q186 59 213.50 55.50Q241 52 292 52L321 52Z"  horiz-adv-x="618" vert-adv-y="1024"  />

      
      <glyph glyph-name="unifd" unicode="&#xfd;" d="M428 635L332 520Q319 505 307 505Q299 505 290.50 512.50Q282 520 282 530Q282 542 291 553L387 668Q401 683 412 683Q421 683 429 675.50Q437 668 437 657Q437 646 428 635M544-87Q544-152 525-178.50Q506-205 453-205L170-205Q138-205 116.50-195.50Q95-186 85.50-168Q76-150 73-133Q70-116 70-93Q70-58 96-58Q122-58 122-91Q122-126 134-139.50Q146-153 177-153L446-153Q475-153 483.50-143Q492-133 492-103L492 63Q433 0 321 0L292 0Q177 0 123.50 35.50Q70 71 70 176L70 434Q70 468 95 468Q122 468 122 434L122 177Q122 134 130.50 109Q139 84 162.50 71.50Q186 59 213.50 55.50Q241 52 292 52L321 52Q406 52 449 97.50Q492 143 492 230L492 434Q492 468 518 468Q544 468 544 434L544-87Z"  horiz-adv-x="619" vert-adv-y="1024"  />

      
      <glyph glyph-name="unife" unicode="&#xfe;" d="M497 284Q497 327 488.50 352Q480 377 456.50 389.50Q433 402 405.50 405.50Q378 409 327 409L298 409Q127 409 127 232L127 52L328 52Q426 52 461.50 74Q497 96 497 177L497 284M549 176Q549 71 495.50 35.50Q442 0 328 0L127 0L127-147Q127-182 99-182Q75-182 75-147L75 608Q75 643 101 643Q127 643 127 608L127 398Q186 461 298 461L327 461Q442 461 495.50 425.50Q549 390 549 285L549 176Z"  horiz-adv-x="611" vert-adv-y="1024"  />

      
      <glyph glyph-name="uniff" unicode="&#xff;" d="M234 599Q250 599 267.50 587Q285 575 285 558Q285 541 267.50 529Q250 517 234 517Q217 517 200 529Q183 541 183 558Q183 575 200 587Q217 599 234 599M380 599Q396 599 413.50 587Q431 575 431 558Q431 541 413.50 529Q396 517 380 517Q363 517 346 529Q329 541 329 558Q329 575 346 587Q363 599 380 599M544-87Q544-152 525-178.50Q506-205 453-205L170-205Q138-205 116.50-195.50Q95-186 85.50-168Q76-150 73-133Q70-116 70-93Q70-58 96-58Q122-58 122-91Q122-126 134-139.50Q146-153 177-153L446-153Q475-153 483.50-143Q492-133 492-103L492 63Q433 0 321 0L292 0Q177 0 123.50 35.50Q70 71 70 176L70 434Q70 468 95 468Q122 468 122 434L122 177Q122 134 130.50 109Q139 84 162.50 71.50Q186 59 213.50 55.50Q241 52 292 52L321 52Q406 52 449 97.50Q492 143 492 230L492 434Q492 468 518 468Q544 468 544 434L544-87Z"  horiz-adv-x="619" vert-adv-y="1024"  />

      
      <glyph glyph-name="uni0100" unicode="&#x0100;" d="M130 734Q130 760 161 760L406 760Q440 760 440 732Q440 721 430.50 714Q421 707 406 707L161 707Q130 707 130 734M316 636L543 25Q546 16 546 9Q546-4 537-10Q528-16 520-16Q503-16 493 7L422 199L148 199L77 7Q67-16 50-16Q42-16 33-10Q24-4 24 9Q24 16 27 25L254 636L316 636M284 560L168 251L402 251L284 560Z"  horiz-adv-x="570" vert-adv-y="1024"  />

      
      <glyph glyph-name="uni0101" unicode="&#x0101;" d="M116 549Q116 575 147 575L392 575Q426 575 426 547Q426 536 416.50 529Q407 522 392 522L147 522Q116 522 116 549M283 243Q232 243 204.50 239.50Q177 236 153 223.50Q129 211 120.50 186Q112 161 112 118Q112 92 129 72Q146 52 167 52L260 52Q344 52 387 97.50Q430 143 430 228L430 243L283 243M283 295L430 295L430 352Q430 383 418.50 396Q407 409 375 409L234 409Q112 409 112 349Q112 314 85 314Q60 314 60 349Q60 407 106 434Q152 461 227 461L382 461Q440 461 461 433Q482 405 482 335L482 27Q482-7 456-7Q430-7 430 28L430 63Q373 0 260 0L167 0Q120 0 90 33.50Q60 67 60 123Q60 224 114.50 259.50Q169 295 283 295Z"  horiz-adv-x="554" vert-adv-y="1024"  />

      
      <glyph glyph-name="uni0102" unicode="&#x0102;" d="M316 636L543 25Q546 16 546 9Q546-4 537-10Q528-16 520-16Q503-16 493 7L422 199L148 199L77 7Q67-16 50-16Q42-16 33-10Q24-4 24 9Q24 16 27 25L254 636L316 636M284 560L168 251L402 251L284 560M284 688Q238 688 201 723.50Q164 759 164 819L217 819Q217 776 237.50 759Q258 742 284 742Q310 742 330.50 759Q351 776 351 819L404 819Q404 758 366.50 723Q329 688 284 688Z"  horiz-adv-x="570" vert-adv-y="1024"  />

      
      <glyph glyph-name="uni0103" unicode="&#x0103;" d="M272 522Q226 522 189 557.50Q152 593 152 653L205 653Q205 610 225.50 593Q246 576 272 576Q298 576 318.50 593Q339 610 339 653L392 653Q392 592 354.50 557Q317 522 272 522M283 243Q232 243 204.50 239.50Q177 236 153 223.50Q129 211 120.50 186Q112 161 112 118Q112 92 129 72Q146 52 167 52L260 52Q344 52 387 97.50Q430 143 430 228L430 243L283 243M283 295L430 295L430 352Q430 383 418.50 396Q407 409 375 409L234 409Q112 409 112 349Q112 314 85 314Q60 314 60 349Q60 407 106 434Q152 461 227 461L382 461Q440 461 461 433Q482 405 482 335L482 27Q482-7 456-7Q430-7 430 28L430 63Q373 0 260 0L167 0Q120 0 90 33.50Q60 67 60 123Q60 224 114.50 259.50Q169 295 283 295Z"  horiz-adv-x="554" vert-adv-y="1024"  />

      
      <glyph glyph-name="uni0104" unicode="&#x0104;" d="M284 560L168 251L402 251L284 560M50-16Q42-16 33-10Q24-4 24 9Q24 16 27 25L258 646L312 646L543 25Q546 16 546 9Q546-1 535-12Q515-31 500-60Q485-89 485-101Q485-155 527-155Q543-155 565-146.50Q587-138 593-138Q608-138 608-155Q608-181 581-193Q554-205 529-205Q488-205 460.50-176Q433-147 433-101Q433-58 491 13L422 199L148 199L77 7Q67-16 50-16Z"  horiz-adv-x="569" vert-adv-y="1024"  />

      
      <glyph glyph-name="uni0105" unicode="&#x0105;" d="M283 295L430 295L430 352Q430 383 418.50 396Q407 409 375 409L234 409Q112 409 112 349Q112 314 85 314Q60 314 60 349Q60 407 106 434Q152 461 227 461L382 461Q440 461 461 433Q482 405 482 335L482 27Q482 4 469-4Q446-18 429-51Q412-84 412-100Q412-154 454-154Q470-154 492-145.50Q514-137 520-137Q535-137 535-154Q535-180 508-192Q481-204 456-204Q415-204 387.50-175Q360-146 360-100Q360-76 382.50-38Q405 0 430 29L430 63Q373 0 260 0L167 0Q120 0 90 33.50Q60 67 60 123Q60 224 114.50 259.50Q169 295 283 295M283 243Q232 243 204.50 239.50Q177 236 153 223.50Q129 211 120.50 186Q112 161 112 118Q112 92 129 72Q146 52 167 52L260 52Q344 52 387 97.50Q430 143 430 228L430 243L283 243Z"  horiz-adv-x="554" vert-adv-y="1024"  />

      
      <glyph glyph-name="uni0106" unicode="&#x0106;" d="M436 0L295 0Q179 0 125.50 36Q72 72 72 180L72 456Q72 564 125 600Q178 636 289 636L436 636Q468 636 489.50 626.50Q511 617 520.50 599.50Q530 582 533 565Q536 548 536 524Q536 489 510 489Q484 489 484 522Q484 557 472 570.50Q460 584 429 584L289 584Q241 584 214 580.50Q187 577 164 564Q141 551 132.50 525Q124 499 124 456L124 180Q124 97 160 74.50Q196 52 295 52L429 52Q461 52 472.50 66Q484 80 484 114Q484 147 510 147Q536 147 536 111Q536 88 533 71Q530 54 520.50 36.50Q511 19 489.50 9.50Q468 0 436 0M406 771L336 702Q324 689 312 689Q302 689 294 696.50Q286 704 286 713Q286 724 299 739L368 807Q380 820 393 820Q404 820 411 811.50Q418 803 418 795Q418 785 406 771Z"  horiz-adv-x="592" vert-adv-y="1024"  />

      
      <glyph glyph-name="uni0107" unicode="&#x0107;" d="M426 0L285 0Q170 0 116 35.50Q62 71 62 176L62 285Q62 390 116 425.50Q170 461 285 461L426 461Q458 461 479.50 451.50Q501 442 510.50 424Q520 406 523 389Q526 372 526 349Q526 314 500 314Q474 314 474 347Q474 382 462 395.50Q450 409 419 409L285 409Q234 409 206.50 405.50Q179 402 155 389.50Q131 377 122.50 352Q114 327 114 284L114 177Q114 134 122.50 109Q131 84 155 71.50Q179 59 206.50 55.50Q234 52 285 52L419 52Q451 52 462.50 66Q474 80 474 114Q474 147 500 147Q526 147 526 111Q526 88 523 71Q520 54 510.50 36.50Q501 19 479.50 9.50Q458 0 426 0M404 635L308 520Q294 505 283 505Q275 505 266.50 512.50Q258 520 258 530Q258 542 267 553L363 668Q376 683 388 683Q397 683 405 675.50Q413 668 413 657Q413 646 404 635Z"  horiz-adv-x="584" vert-adv-y="1024"  />

      
      <glyph glyph-name="uni0108" unicode="&#x0108;" d="M175 687L280 819L339 819L446 687Q452 679 452 669Q452 646 429 646Q424 646 419.50 648Q415 650 413.50 651.50Q412 653 407 659Q402 665 401 666L310 762L220 666Q218 664 215 660Q212 656 210 654.50Q208 653 205.50 650.50Q203 648 199.50 647Q196 646 192 646Q169 646 169 669Q169 679 175 687M436 0L295 0Q179 0 125.50 36Q72 72 72 180L72 456Q72 564 125 600Q178 636 289 636L436 636Q468 636 489.50 626.50Q511 617 520.50 599.50Q530 582 533 565Q536 548 536 524Q536 489 510 489Q484 489 484 522Q484 557 472 570.50Q460 584 429 584L289 584Q241 584 214 580.50Q187 577 164 564Q141 551 132.50 525Q124 499 124 456L124 180Q124 97 160 74.50Q196 52 295 52L429 52Q461 52 472.50 66Q484 80 484 114Q484 147 510 147Q536 147 536 111Q536 88 533 71Q530 54 520.50 36.50Q511 19 489.50 9.50Q468 0 436 0Z"  horiz-adv-x="592" vert-adv-y="1024"  />

      
      </font>
</defs>
</svg>
